<?xml version="1.0" encoding="UTF-8"?>
<!DOCTYPE svg PUBLIC "-//W3C//DTD SVG 1.1//EN" "http://www.w3.org/Graphics/SVG/1.1/DTD/svg11.dtd">
<!-- Creator: CorelDRAW 2018 (64-Bit) -->
<svg xmlns="http://www.w3.org/2000/svg" xml:space="preserve" width="29.3078mm" height="12.2659mm" version="1.1" style="shape-rendering:geometricPrecision; text-rendering:geometricPrecision; image-rendering:optimizeQuality; fill-rule:evenodd; clip-rule:evenodd"
viewBox="0 0 221.48 92.69"
 xmlns:xlink="http://www.w3.org/1999/xlink">
 <defs>
  <style type="text/css">
   <![CDATA[
    .fil0 {fill:#0064AD;fill-rule:nonzero}
    .fil1 {fill:#FFCC00;fill-rule:nonzero}
   ]]>
  </style>
 </defs>
 <g id="Слой_x0020_1">
  <metadata id="CorelCorpID_0Corel-Layer"/>
  <g id="_1680542772368">
   <path class="fil0" d="M220.39 21.53c-2.4,-11.74 -10.62,-19.53 -21.34,-20.69l-41.39 0 0 16.61 30.99 0 0 0.09c7.49,0.8 12.49,5.06 12.63,13.25 0.17,9.45 -5.57,14.58 -15.23,14.71 -1.15,0.02 -2.29,0.03 -3.46,0.03l-5.51 0c-2.48,0 -5.16,-0.02 -8.22,-0.02l0.01 0.02 -0.62 0 0 46.35 20.96 0 0 -30.88c0,0 4.1,0.77 9.39,0 1.22,-0.17 2.49,-0.44 3.8,-0.81 6.97,-1.96 14.71,-7.05 17.84,-19.5 1.73,-5.86 1.54,-12.33 0.15,-19.14z"/>
   <path class="fil0" d="M87.35 18.04l22.29 0 0 62.7 20.48 -13.57 0 -49.13 22.38 0 0 -18.04 -72.56 0c3.35,3.87 6.89,9.51 7.41,18.04z"/>
   <polygon class="fil1" points="109.65,92.69 130.12,92.69 130.12,72.13 109.65,85.7 "/>
   <path class="fil0" d="M82.08 91.4c-0.31,-0.47 -0.61,-0.92 -0.93,-1.39 -6.97,-10.51 -13.4,-20.18 -20.05,-30.2 2.72,-1.8 4.91,-3.19 7.04,-4.66 12.4,-8.59 14.43,-20.87 11.66,-34.45 -2.4,-11.75 -10.63,-19.53 -21.34,-20.7l-58.46 0 10.69 16.61 37.36 0 0 0.09c7.5,0.81 12.49,5.06 12.64,13.25 0.17,9.45 -5.57,14.58 -15.23,14.71 -4.97,0.06 -9.96,0.01 -16.72,0.01l30.91 48.03 23.2 0 -0.83 -1.28c0.02,-0.01 0.04,-0.01 0.06,-0.01z"/>
  </g>
 </g>
</svg>
