<?xml version="1.0" encoding="UTF-8"?>
<!DOCTYPE svg PUBLIC "-//W3C//DTD SVG 1.1//EN" "http://www.w3.org/Graphics/SVG/1.1/DTD/svg11.dtd">
<!-- Creator: CorelDRAW 2018 (64-Bit) -->
<svg xmlns="http://www.w3.org/2000/svg" xml:space="preserve" width="205.67mm" height="86.077mm" version="1.1" style="shape-rendering:geometricPrecision; text-rendering:geometricPrecision; image-rendering:optimizeQuality; fill-rule:evenodd; clip-rule:evenodd"
viewBox="0 0 89070.6 37277.9"
 xmlns:xlink="http://www.w3.org/1999/xlink">
 <defs>
  <style type="text/css">
   <![CDATA[
    .fil1 {fill:#EBECEC;fill-rule:nonzero}
    .fil0 {fill:#F4F7FC;fill-rule:nonzero}
   ]]>
  </style>
 </defs>
 <g id="Слой_x0020_1">
  <metadata id="CorelCorpID_0Corel-Layer"/>
  <g id="_2314863804832">
   <path class="fil0" d="M88630.64 8656.72c-964.37,-4721.48 -4271,-7852.19 -8581.97,-8321.77l-16645.24 0 0 6680.16 12462.85 0 0 36.51c3010.83,323.64 5022.08,2035.59 5079.85,5327.01 67.78,3801.41 -2238.01,5862.21 -6123.7,5913.91 -460.92,6.06 -920.5,11.26 -1390.52,11.26l-2215.88 0c-998.67,0 -2075.52,-6.06 -3304.89,-6.06l5.67 6.06 -251.1 0 0 18639.6 8428.18 0 0 -12419.02c0,0 1648.98,309.3 3775.34,0 489.59,-70.33 1002.61,-176.35 1526.51,-324.89 2803.61,-786.29 5914.74,-2834.01 7174.51,-7843.92 694.18,-2354.89 619.86,-4960.41 60.37,-7698.84z"/>
   <path class="fil0" d="M35130.62 7255.32l8964.24 0 0 25213.78 8235.29 -5456.5 0 -19757.28 8999.02 0 0 -7255.32 -29179.37 0c1345.74,1556.48 2771.86,3822.72 2980.82,7255.32z"/>
   <polygon class="fil1" points="44095.73,37277.03 52330.63,37277.03 52330.63,29008.7 44095.73,34465.59 "/>
   <path class="fil0" d="M33009.89 36757.9c-126.41,-189.38 -247.16,-370.11 -372.71,-559.49 -2803.61,-4226.69 -5388.72,-8117.19 -8063.32,-12146.66 1093.39,-724.58 1973.48,-1284.07 2830.98,-1875.74 4985.14,-3455.17 5802.27,-8393.41 4687.14,-13852.5 -966.5,-4724.08 -4273.6,-7854.79 -8581.97,-8323.07l-23510.02 0 4299.23 6680.63 15025.36 0 0 35.17c3014.3,324.5 5023.81,2035.15 5083.36,5328.35 67.73,3800.55 -2238.48,5862.21 -6124.17,5914.3 -1998.21,25.64 -4006,5.67 -6722.73,3.03l12429.42 19315.98 9329.59 0 -335.81 -515.23c9.14,-3.9 16.5,-3.9 25.64,-4.76z"/>
  </g>
 </g>
</svg>
