<?xml version="1.0" encoding="UTF-8"?>
<!DOCTYPE svg PUBLIC "-//W3C//DTD SVG 1.1//EN" "http://www.w3.org/Graphics/SVG/1.1/DTD/svg11.dtd">
<!-- Creator: CorelDRAW 2018 (64-Bit) -->
<svg xmlns="http://www.w3.org/2000/svg" xml:space="preserve" width="131.44mm" height="131.439mm" version="1.1" style="shape-rendering:geometricPrecision; text-rendering:geometricPrecision; image-rendering:optimizeQuality; fill-rule:evenodd; clip-rule:evenodd"
viewBox="0 0 13094.29 13094.26"
 xmlns:xlink="http://www.w3.org/1999/xlink">
 <defs>
  <style type="text/css">
   <![CDATA[
    .fil0 {fill:#E3E8EC}
   ]]>
  </style>
 </defs>
 <g id="Слой_x0020_1">
  <metadata id="CorelCorpID_0Corel-Layer"/>
  <path class="fil0" d="M7784.26 6302.01c-714.75,1163.29 -2096.43,2819.07 -3228.39,3427.81 -2382.19,1281.12 -3058.5,-1004 -2390.27,-3034.6 473.47,-1438.78 1675.23,-3342.22 2817.3,-3841.17 1139.13,-497.65 1756.01,64.54 2143.81,840.13 162.47,324.94 850.96,2293.03 657.56,2607.83zm-1237.13 -6302.01c-3615.86,0 -6547.13,2931.25 -6547.13,6547.12 0,28.2 0.71,56.24 1.07,84.35 12.37,-43.42 25.27,-87 38.88,-130.84 914.71,-2946.72 4626.68,-5665.1 7270.69,-4667.97 1084.9,409.14 1419.04,1143.68 1917.65,2177.37l1279.63 -2000.71 756.78 -1.56c-1190.98,-1237.6 -2864.28,-2007.75 -4717.55,-2007.75zm-4957.17 10823.97c1200.45,1390.36 2976.08,2270.29 4957.17,2270.29 1802.2,0 3434.27,-728.2 4618.09,-1906.43 -254.71,-13.83 -511.73,-63.25 -760.53,-155.17 -1088.51,-402.15 -1314.83,-1221.65 -1730.44,-2360.93 -112.98,45.26 -861.15,779.65 -1071.67,945.96 -1296.34,1023.94 -2604.55,1739.08 -4491.99,1595.61 -565.91,-43.01 -1077.83,-176.77 -1520.63,-389.32zm10440.4 -698.66c672.56,-1028.52 1063.92,-2257.57 1063.92,-3578.19 0,-1204.14 -325.45,-2332.15 -892.62,-3301.49 -744.53,1186.28 -1827.2,2835.93 -2052.94,3192.39 -211.67,334.22 106.47,967.53 232.19,1360.79 537.2,1680.36 735.54,2171.58 1649.45,2326.49z"/>
 </g>
</svg>
