<?xml version="1.0" encoding="UTF-8"?>
<!DOCTYPE svg PUBLIC "-//W3C//DTD SVG 1.1//EN" "http://www.w3.org/Graphics/SVG/1.1/DTD/svg11.dtd">
<!-- Creator: CorelDRAW 2018 (64-Bit) -->
<svg xmlns="http://www.w3.org/2000/svg" xml:space="preserve" width="49.6531mm" height="20.7808mm" version="1.1" style="shape-rendering:geometricPrecision; text-rendering:geometricPrecision; image-rendering:optimizeQuality; fill-rule:evenodd; clip-rule:evenodd"
viewBox="0 0 760.43 318.25"
 xmlns:xlink="http://www.w3.org/1999/xlink">
 <defs>
  <style type="text/css">
   <![CDATA[
    .fil0 {fill:#FEFEFE;fill-rule:nonzero}
   ]]>
  </style>
 </defs>
 <g id="Слой_x0020_1">
  <metadata id="CorelCorpID_0Corel-Layer"/>
  <g id="_2393871596736">
   <path class="fil0" d="M756.67 73.9c-8.23,-40.31 -36.46,-67.04 -73.27,-71.05l-142.11 0 0 57.03 106.4 0 0 0.31c25.7,2.76 42.88,17.38 43.37,45.48 0.58,32.46 -19.11,50.05 -52.28,50.49 -3.94,0.05 -7.86,0.1 -11.87,0.1l-18.92 0c-8.53,0 -17.72,-0.05 -28.22,-0.05l0.05 0.05 -2.14 0 0 159.13 71.96 0 0 -106.03c0,0 14.08,2.64 32.23,0 4.18,-0.6 8.56,-1.51 13.03,-2.77 23.94,-6.71 50.5,-24.2 61.25,-66.97 5.93,-20.1 5.29,-42.35 0.52,-65.73z"/>
   <path class="fil0" d="M299.92 61.94l76.53 0 0 215.26 70.31 -46.58 0 -168.68 76.83 0 0 -61.94 -249.12 0c11.49,13.29 23.66,32.64 25.45,61.94z"/>
   <polygon class="fil0" points="376.46,318.25 446.76,318.25 446.76,247.66 376.46,294.25 "/>
   <path class="fil0" d="M281.82 313.81c-1.08,-1.62 -2.11,-3.16 -3.18,-4.78 -23.94,-36.08 -46.01,-69.3 -68.84,-103.7 9.33,-6.19 16.85,-10.96 24.17,-16.01 42.56,-29.5 49.54,-71.66 40.02,-118.26 -8.25,-40.33 -36.49,-67.06 -73.27,-71.06l-200.71 0 36.7 57.04 128.28 0 0 0.3c25.74,2.77 42.89,17.37 43.4,45.49 0.58,32.45 -19.11,50.05 -52.28,50.49 -17.06,0.22 -34.2,0.05 -57.39,0.03l106.11 164.91 79.65 0 -2.87 -4.4c0.08,-0.03 0.14,-0.03 0.22,-0.04z"/>
  </g>
 </g>
</svg>
