<?xml version="1.0" encoding="UTF-8"?>
<!DOCTYPE svg PUBLIC "-//W3C//DTD SVG 1.1//EN" "http://www.w3.org/Graphics/SVG/1.1/DTD/svg11.dtd">
<!-- Creator: CorelDRAW 2018 (64-Bit) -->
<svg xmlns="http://www.w3.org/2000/svg" xml:space="preserve" width="131.197mm" height="131.197mm" version="1.1" style="shape-rendering:geometricPrecision; text-rendering:geometricPrecision; image-rendering:optimizeQuality; fill-rule:evenodd; clip-rule:evenodd"
viewBox="0 0 14667.82 14667.82"
 xmlns:xlink="http://www.w3.org/1999/xlink">
 <defs>
  <style type="text/css">
   <![CDATA[
    .fil0 {fill:#E3E8EC}
   ]]>
  </style>
 </defs>
 <g id="Слой_x0020_1">
  <metadata id="CorelCorpID_0Corel-Layer"/>
  <path class="fil0" d="M7333.92 0c4050.42,0 7333.9,3283.49 7333.9,7333.9 0,1441.27 -415.96,2785.35 -1134.18,3918.92l-1362.61 0c377.93,-714.22 512.68,-900.96 771.75,-1738.4 117.22,-378.85 267.36,-1172.7 279.23,-1590.58 22.48,-788.28 56.55,-1116.62 -113.81,-1962.57 -718.36,-3566.12 -4112.59,-5236.3 -7761.03,-4324.24 -379.64,94.9 -988.46,332.45 -1332.19,537.66 -371.12,221.54 -590.14,329.75 -943.48,644.57 -62.95,56.05 -92.89,68.88 -153.98,127.75 -444.65,428 -637.45,664.04 -971.44,1180.15 -164.1,253.51 -241.54,416.14 -362.35,687.82 -60.69,136.55 -105.77,234.57 -154.66,383.16 -502.43,1526.87 -534.48,3031.1 -19.14,4572.32 174.78,522.81 248.15,673.87 481.05,1132.65 51.82,102.2 162.94,255.18 188.19,349.72l-944.99 0c-718.12,-1133.7 -1134.19,-2477.65 -1134.19,-3918.92 0,-4050.41 3283.54,-7333.9 7333.92,-7333.9zm4298.17 13276.32c-1207.81,875.16 -2692.58,1391.5 -4298.17,1391.5 -1605.58,0 -3090.43,-516.3 -4298.16,-1391.5l2193.94 0 0 -1511.22c0,-90.75 -467.91,-427.46 -608.59,-569.72 -199.9,-202.17 -398.63,-409.4 -559.42,-644.38 -119.09,-174.01 -219.79,-304.05 -325.53,-494.1 -589.12,-1058.89 -827.69,-2253.61 -600.01,-3458.99 21.71,-114.99 60.35,-294.98 98.83,-413.49 41.5,-127.98 73.79,-278.84 133.28,-404.57 176.34,-372.41 214.75,-494.6 460.17,-820.58 43.86,-58.29 61.33,-91.96 105.24,-150.84 68.22,-91.63 181.73,-189.49 265.06,-272.86 306.76,-306.83 518.48,-437.23 891.94,-644.88 337.83,-187.81 815.25,-325.74 1196.14,-391.94 859.19,-149.41 1878.89,-97.31 2642.58,212.33l936.92 523.01c61.05,46.37 77.01,69.24 133.76,122.42 145.68,136.3 63.1,11.41 246.17,240.49 116.63,145.98 155.11,139.59 332.12,410.65 67.21,102.9 115.98,200.83 179.46,307.28 63.67,106.89 108.02,237.03 159.18,353 193.38,438.12 306.37,1121.35 306.37,1742.8 0,1175.44 -342.11,2056.92 -830.47,2857.92 -146.98,241.1 -189.11,268.7 -347.78,471.92 -56.95,72.87 -117.68,156.36 -185.17,224.58 -122.42,123.66 -281.72,302.05 -414.79,404.92 -89.28,69.07 -137.48,117.28 -223.26,186.54 -45.86,36.97 -58.59,53.33 -110.91,94.02 -46.94,36.48 -90.45,41.61 -90.45,114.46l0 1511.22 2611.57 0z"/>
 </g>
</svg>
