<?xml version="1.0" encoding="UTF-8"?>
<!DOCTYPE svg PUBLIC "-//W3C//DTD SVG 1.1//EN" "http://www.w3.org/Graphics/SVG/1.1/DTD/svg11.dtd">
<!-- Creator: CorelDRAW 2018 (64-Bit) -->
<svg xmlns="http://www.w3.org/2000/svg" xml:space="preserve" width="1.1097mm" height="1.589mm" version="1.1" style="shape-rendering:geometricPrecision; text-rendering:geometricPrecision; image-rendering:optimizeQuality; fill-rule:evenodd; clip-rule:evenodd"
viewBox="0 0 0.33 0.47"
 xmlns:xlink="http://www.w3.org/1999/xlink">
 <defs>
  <style type="text/css">
   <![CDATA[
    .fil0 {fill:#434242}
   ]]>
  </style>
 </defs>
 <g id="Слой_x0020_1">
  <metadata id="CorelCorpID_0Corel-Layer"/>
  <path class="fil0" d="M0.32 0.46l0 0c0.01,-0.01 0.01,-0.03 -0.01,-0.04l-0.23 -0.18 0.23 -0.18c0.01,-0.01 0.02,-0.03 0.01,-0.04l0 0c-0.01,-0.01 -0.03,-0.02 -0.04,-0.01l-0.26 0.2c-0.01,0.01 -0.02,0.03 -0.01,0.04l0 0c0,0 0,0 0,0 0,0 0,0 0,0l0.26 0.21c0.01,0.01 0.03,0.01 0.04,-0.01z"/>
 </g>
</svg>
