<?xml version="1.0" encoding="UTF-8"?>
<!DOCTYPE svg PUBLIC "-//W3C//DTD SVG 1.1//EN" "http://www.w3.org/Graphics/SVG/1.1/DTD/svg11.dtd">
<!-- Creator: CorelDRAW 2018 (64-Bit) -->
<svg xmlns="http://www.w3.org/2000/svg" xml:space="preserve" width="1.1758mm" height="1.6859mm" version="1.1" style="shape-rendering:geometricPrecision; text-rendering:geometricPrecision; image-rendering:optimizeQuality; fill-rule:evenodd; clip-rule:evenodd"
viewBox="0 0 0.31 0.44"
 xmlns:xlink="http://www.w3.org/1999/xlink">
 <defs>
  <style type="text/css">
   <![CDATA[
    .fil0 {fill:#FEFEFE}
   ]]>
  </style>
 </defs>
 <g id="Слой_x0020_1">
  <metadata id="CorelCorpID_0Corel-Layer"/>
  <path class="fil0" d="M0.01 0.43l0 0c-0.01,-0.01 -0.01,-0.03 0,-0.04l0.22 -0.17 -0.22 -0.17c-0.01,-0.01 -0.02,-0.03 -0.01,-0.04l0 0c0.01,-0.01 0.03,-0.02 0.04,-0.01l0.25 0.19c0.01,0.01 0.02,0.03 0.01,0.04l0 0c-0,0 -0,0 -0,0 -0,0 -0,0 -0,0l-0.25 0.19c-0.01,0.01 -0.03,0.01 -0.04,-0z"/>
 </g>
</svg>
