<?xml version="1.0" encoding="UTF-8"?>
<!DOCTYPE svg PUBLIC "-//W3C//DTD SVG 1.1//EN" "http://www.w3.org/Graphics/SVG/1.1/DTD/svg11.dtd">
<!-- Creator: CorelDRAW 2018 (64-Bit) -->
<svg xmlns="http://www.w3.org/2000/svg" xml:space="preserve" width="3.826mm" height="3.826mm" version="1.1" style="shape-rendering:geometricPrecision; text-rendering:geometricPrecision; image-rendering:optimizeQuality; fill-rule:evenodd; clip-rule:evenodd"
viewBox="0 0 1.95 1.95"
 xmlns:xlink="http://www.w3.org/1999/xlink">
 <defs>
  <style type="text/css">
   <![CDATA[
    .fil0 {fill:#888A90}
   ]]>
  </style>
 </defs>
 <g id="Слой_x0020_1">
  <metadata id="CorelCorpID_0Corel-Layer"/>
  <path class="fil0" d="M0.97 0c0.54,0 0.97,0.44 0.97,0.97 0,0.54 -0.44,0.97 -0.97,0.97 -0.54,0 -0.97,-0.44 -0.97,-0.97 0,-0.54 0.44,-0.97 0.97,-0.97zm-0.09 0.64c0.03,-0 0.05,-0 0.08,-0 0.04,0 0.04,0 0.06,0.02 0.03,0.02 0.06,0.06 0.08,0.09 0.05,0.06 0.09,0.14 0.1,0.24 0.01,0.11 -0.01,0.22 -0.06,0.29 -0.05,0.06 -0.12,0.11 -0.24,0.11 -0.11,-0.01 -0.16,-0.06 -0.23,-0.12 -0.05,-0.05 -0.09,-0.15 -0.1,-0.24 -0.03,-0.24 0.08,-0.37 0.3,-0.39zm0.22 -0l0.45 -0 0 -0.16c-0.15,0 -0.66,-0.01 -0.79,0.01 -0.14,0.02 -0.25,0.09 -0.32,0.22 -0.18,0.33 0.07,0.76 0.48,0.76 0.18,0 0.36,-0.06 0.45,-0.23 0.09,-0.17 0.03,-0.37 -0.11,-0.49 -0.03,-0.02 -0.04,-0.04 -0.07,-0.06 -0.02,-0.02 -0.06,-0.04 -0.08,-0.05z"/>
 </g>
</svg>
