<?xml version="1.0" encoding="UTF-8"?>
<!DOCTYPE svg PUBLIC "-//W3C//DTD SVG 1.1//EN" "http://www.w3.org/Graphics/SVG/1.1/DTD/svg11.dtd">
<!-- Creator: CorelDRAW 2018 (64-Bit) -->
<svg xmlns="http://www.w3.org/2000/svg" xml:space="preserve" width="5.4002mm" height="4.4675mm" version="1.1" style="shape-rendering:geometricPrecision; text-rendering:geometricPrecision; image-rendering:optimizeQuality; fill-rule:evenodd; clip-rule:evenodd"
viewBox="0 0 4.72 3.91"
 xmlns:xlink="http://www.w3.org/1999/xlink">
 <defs>
  <style type="text/css">
   <![CDATA[
    .fil0 {fill:#2B2A29}
   ]]>
  </style>
 </defs>
 <g id="Слой_x0020_1">
  <metadata id="CorelCorpID_0Corel-Layer"/>
  <path class="fil0" d="M0.16 0.31l0.72 0c0.06,-0.18 0.23,-0.31 0.43,-0.31 0.2,0 0.37,0.13 0.43,0.31l2.83 0c0.09,0 0.16,0.07 0.16,0.16l0 0c0,0.09 -0.07,0.16 -0.16,0.16l-2.83 0c-0.06,0.18 -0.23,0.31 -0.43,0.31 -0.2,0 -0.37,-0.13 -0.43,-0.31l-0.72 0c-0.09,0 -0.16,-0.07 -0.16,-0.16l0 0c0,-0.09 0.07,-0.16 0.16,-0.16zm0 2.99l1.11 0c0.06,-0.18 0.23,-0.31 0.43,-0.31 0.2,0 0.37,0.13 0.43,0.31l2.44 0c0.09,0 0.16,0.07 0.16,0.16l0 0c0,0.09 -0.07,0.16 -0.16,0.16l-2.44 0c-0.06,0.18 -0.23,0.31 -0.43,0.31 -0.2,0 -0.37,-0.13 -0.43,-0.31l-1.11 0c-0.09,0 -0.16,-0.07 -0.16,-0.16l0 0c0,-0.09 0.07,-0.16 0.16,-0.16zm1.55 -0.03c0.1,0 0.19,0.08 0.19,0.19 0,0.1 -0.08,0.19 -0.19,0.19 -0.1,0 -0.19,-0.08 -0.19,-0.19 0,-0.1 0.08,-0.19 0.19,-0.19zm-1.55 -1.46l3.23 0c0.06,-0.18 0.23,-0.31 0.43,-0.31 0.2,0 0.37,0.13 0.43,0.31l0.32 0c0.09,0 0.16,0.07 0.16,0.16l0 0c0,0.09 -0.07,0.16 -0.16,0.16l-0.32 0c-0.06,0.18 -0.23,0.31 -0.43,0.31 -0.2,0 -0.37,-0.13 -0.43,-0.31l-3.23 0c-0.09,0 -0.16,-0.07 -0.16,-0.16l0 0c0,-0.09 0.07,-0.16 0.16,-0.16zm3.66 -0.03c0.1,0 0.19,0.08 0.19,0.19 0,0.1 -0.08,0.19 -0.19,0.19 -0.1,0 -0.19,-0.08 -0.19,-0.19 0,-0.1 0.08,-0.19 0.19,-0.19zm-2.51 -1.49c0.1,0 0.19,0.08 0.19,0.19 0,0.1 -0.08,0.19 -0.19,0.19 -0.1,0 -0.19,-0.08 -0.19,-0.19 0,-0.1 0.08,-0.19 0.19,-0.19z"/>
 </g>
</svg>
