<?xml version="1.0" encoding="UTF-8"?>
<!DOCTYPE svg PUBLIC "-//W3C//DTD SVG 1.1//EN" "http://www.w3.org/Graphics/SVG/1.1/DTD/svg11.dtd">
<!-- Creator: CorelDRAW 2018 (64-Bit) -->
<svg xmlns="http://www.w3.org/2000/svg" xml:space="preserve" width="3.826mm" height="3.826mm" version="1.1" style="shape-rendering:geometricPrecision; text-rendering:geometricPrecision; image-rendering:optimizeQuality; fill-rule:evenodd; clip-rule:evenodd"
viewBox="0 0 1.95 1.95"
 xmlns:xlink="http://www.w3.org/1999/xlink">
 <defs>
  <style type="text/css">
   <![CDATA[
    .fil0 {fill:#888A90}
   ]]>
  </style>
 </defs>
 <g id="Слой_x0020_1">
  <metadata id="CorelCorpID_0Corel-Layer"/>
  <path class="fil0" d="M0.97 0c0.54,0 0.97,0.44 0.97,0.97 0,0.54 -0.44,0.97 -0.97,0.97 -0.54,0 -0.97,-0.44 -0.97,-0.97 0,-0.54 0.44,-0.97 0.97,-0.97zm0.05 0.87c0.07,0.1 0.19,0.16 0.18,0.39 -0.02,0.35 -0.32,0.37 -0.42,0.15 -0.07,-0.15 -0.07,-0.52 0.24,-0.55zm-0.06 -0.05c-0.09,0.05 -0.34,0.07 -0.38,0.38 -0.03,0.23 0.14,0.42 0.35,0.42 0.35,0.01 0.54,-0.4 0.38,-0.66 -0.1,-0.15 -0.28,-0.23 -0.43,-0.34 -0.25,-0.17 -0.05,-0.27 0.09,-0.24 0.11,0.02 0.16,0.15 0.22,0.17 0.06,0.02 0.11,-0.03 0.11,-0.09 -0.02,-0.19 -0.64,-0.23 -0.61,0.05 0.01,0.05 0.05,0.1 0.07,0.13l0.16 0.13c0.02,0.02 0.03,0.02 0.05,0.05z"/>
 </g>
</svg>
