<?xml version="1.0" encoding="UTF-8"?>
<!DOCTYPE svg PUBLIC "-//W3C//DTD SVG 1.1//EN" "http://www.w3.org/Graphics/SVG/1.1/DTD/svg11.dtd">
<!-- Creator: CorelDRAW 2018 (64-Bit) -->
<svg xmlns="http://www.w3.org/2000/svg" xml:space="preserve" width="3.826mm" height="3.8261mm" version="1.1" style="shape-rendering:geometricPrecision; text-rendering:geometricPrecision; image-rendering:optimizeQuality; fill-rule:evenodd; clip-rule:evenodd"
viewBox="0 0 1.95 1.95"
 xmlns:xlink="http://www.w3.org/1999/xlink">
 <defs>
  <style type="text/css">
   <![CDATA[
    .fil0 {fill:#888A90}
   ]]>
  </style>
 </defs>
 <g id="Слой_x0020_1">
  <metadata id="CorelCorpID_0Corel-Layer"/>
  <path class="fil0" d="M0.97 0c0.54,0 0.97,0.44 0.97,0.97 0,0.54 -0.44,0.97 -0.97,0.97 -0.54,0 -0.97,-0.44 -0.97,-0.97 0,-0.54 0.44,-0.97 0.97,-0.97zm-0.42 0.56c0,0.01 0,0.02 -0,0.02l-0 0.03 0 0.02 0.02 0 0.03 -0 0 -0.05c0.01,-0.07 0.04,-0.13 0.12,-0.13 0.04,0 0.06,0.02 0.08,0.04 0.01,0.01 0.04,0.06 0.04,0.08 0,0 0.01,0.02 0.01,0.03 0.01,0.01 0.02,0.05 0.02,0.07l0.01 0.03c0.01,0.04 0.02,0.07 0.02,0.11 0.01,0.04 0.01,0.08 0.02,0.12l0 0.02 0.01 0.05c0,0.01 0,0.02 0,0.02 0.01,0.01 0.01,0.03 0.01,0.04l0 0.03c-0,0.01 -0.03,0.06 -0.04,0.07 -0,0.01 -0.01,0.02 -0.01,0.03 -0,0.01 -0.01,0.02 -0.02,0.03l-0.03 0.07c0,0.01 -0.01,0.02 -0.01,0.03 -0,0 -0.01,0.03 -0.01,0.04 0,0.01 -0,0.02 -0,0.03 -0,0.04 -0,0.06 -0,0.1l0.01 0.03c0,0 0.02,0.03 0.02,0.04 0,0 0,0 0,0.01 0,0 0,0 0,0l0.02 0.02c0,0 0,0 0.01,0 0.01,0 0.01,0.01 0.02,0.01 0,0 0.01,0 0.01,0 0.01,0 0.01,0 0.01,0l0.03 -0c0.01,-0.01 0.04,-0 0.07,-0.08l0 -0.01c-0,-0.01 0,-0.02 0.01,-0.03 0.01,-0.04 0.01,-0.07 0.01,-0.11 0,-0.04 -0,-0.08 -0.01,-0.12l-0 -0.03 -0 -0.04c-0,-0.01 -0,-0.02 -0,-0.03 -0,-0 -0,-0 -0,-0l-0.01 -0.03c-0,-0.01 -0,-0.02 -0.01,-0.02 -0,-0.01 -0.01,-0.02 -0,-0.02 0,-0.01 0,-0.01 0.01,-0.01 0,-0 0,-0 0,-0.01 0,-0 0,-0 0,-0.01 0,-0 0.01,-0.03 0.01,-0.03l0.24 -0.49c0,-0.01 -0,-0 0,-0 0,-0 0,-0 0,-0 0,-0 0,-0 0,-0 0,-0.01 0.01,-0.03 0.01,-0.03l0.01 -0.03c0,-0 0,-0 0,-0 0,-0 0.01,-0.02 0.01,-0.03l0 -0.01c0,-0.01 0.03,-0.06 0.03,-0.06l0.02 -0.05 -0.19 -0c-0,0 -0,0 -0,0.01 -0,0.01 -0,0 -0,0 0,0.01 -0,0.01 -0,0.02 -0,0 -0,0.01 -0,0.01 -0,0 -0,0 -0,0 -0,0 -0,0 -0,0 0,0.01 -0,0.02 -0.01,0.03 -0,0.01 -0.02,0.07 -0.02,0.07 -0,0.01 -0.01,0.05 -0.02,0.07 -0,0.01 -0.05,0.19 -0.06,0.19 0,0.01 -0.01,0.05 -0.02,0.06 -0,0.01 -0.01,0.03 -0.01,0.03 0,0.01 -0.04,0.12 -0.04,0.14l-0.02 -0.14 -0 -0.03c-0,-0.01 -0,-0.02 -0,-0.03 -0.01,-0.01 -0.01,-0.03 -0.01,-0.04 -0,-0.01 -0,-0.02 -0,-0.03 -0,-0.01 -0.01,-0.06 -0.01,-0.07 -0,-0.01 -0.01,-0.02 -0,-0.03 -0,-0.01 -0.01,-0.03 -0.01,-0.04 -0.02,-0.06 -0.03,-0.11 -0.05,-0.16 -0.02,-0.05 -0.06,-0.09 -0.12,-0.09 -0.06,-0.01 -0.12,0.02 -0.15,0.07 -0.02,0.02 -0.03,0.05 -0.03,0.08 -0,0.01 -0.01,0.03 -0.01,0.04 -0,0.01 -0,0.04 -0.01,0.05z"/>
 </g>
</svg>
