<?xml version="1.0" encoding="UTF-8"?>
<!DOCTYPE svg PUBLIC "-//W3C//DTD SVG 1.1//EN" "http://www.w3.org/Graphics/SVG/1.1/DTD/svg11.dtd">
<!-- Creator: CorelDRAW 2018 (64-Bit) -->
<svg xmlns="http://www.w3.org/2000/svg" xml:space="preserve" width="1.3091mm" height="1.8745mm" version="1.1" style="shape-rendering:geometricPrecision; text-rendering:geometricPrecision; image-rendering:optimizeQuality; fill-rule:evenodd; clip-rule:evenodd"
viewBox="0 0 1.1 1.57"
 xmlns:xlink="http://www.w3.org/1999/xlink">
 <defs>
  <style type="text/css">
   <![CDATA[
    .fil0 {fill:#434242}
   ]]>
  </style>
 </defs>
 <g id="Слой_x0020_1">
  <metadata id="CorelCorpID_0Corel-Layer"/>
  <path class="fil0" d="M1.06 1.53l0 0c0.04,-0.04 0.03,-0.11 -0.02,-0.15l-0.77 -0.61 0.78 -0.59c0.05,-0.03 0.05,-0.1 0.02,-0.14l0 0c-0.03,-0.05 -0.1,-0.05 -0.14,-0.02l-0.89 0.67c-0.05,0.03 -0.05,0.1 -0.02,0.14l0 0c0,0 0.01,0.01 0.01,0.01 0,0 0.01,0.01 0.01,0.01l0.87 0.69c0.04,0.04 0.11,0.03 0.15,-0.02z"/>
 </g>
</svg>
