<?xml version="1.0" encoding="UTF-8"?>
<!DOCTYPE svg PUBLIC "-//W3C//DTD SVG 1.1//EN" "http://www.w3.org/Graphics/SVG/1.1/DTD/svg11.dtd">
<!-- Creator: CorelDRAW 2018 (64-Bit) -->
<svg xmlns="http://www.w3.org/2000/svg" xml:space="preserve" width="4.4219mm" height="4.8597mm" version="1.1" style="shape-rendering:geometricPrecision; text-rendering:geometricPrecision; image-rendering:optimizeQuality; fill-rule:evenodd; clip-rule:evenodd"
viewBox="0 0 9.75 10.72"
 xmlns:xlink="http://www.w3.org/1999/xlink">
 <defs>
  <style type="text/css">
   <![CDATA[
    .fil0 {fill:#FEFEFE}
   ]]>
  </style>
 </defs>
 <g id="Слой_x0020_1">
  <metadata id="CorelCorpID_0Corel-Layer"/>
  <path class="fil0" d="M3.36 2.66l-0.45 0.79c-0.16,0.31 -0.33,0.45 -0.4,0.83 -0.13,0.69 0.4,1.46 0.71,1.9 0.63,0.91 1.87,2.28 3.12,1.72 0.71,-0.32 0.63,-0.8 1.73,-0.08 0.36,0.23 1.15,0.79 1.3,1.27 0.09,0.29 -0.23,0.64 -0.41,0.79 -0.87,0.72 -2.09,0.49 -3,0.14 -0.39,-0.15 -0.7,-0.3 -1.03,-0.5l-0.58 -0.37c-0.85,-0.62 -1.94,-1.79 -2.56,-2.57 -0.8,-1.02 -1.49,-2.49 -1.42,-3.86 0.04,-0.82 0.28,-1.62 0.91,-2.16 0.47,-0.4 0.8,-0.1 1.21,0.37 0.2,0.23 1.06,1.4 0.88,1.72zm-1.84 -2.64c-0.34,0.1 -0.6,0.33 -0.8,0.59 -0.18,0.22 -0.4,0.56 -0.49,0.85 -0.72,2.29 0.41,4.45 1.86,6.05 0.29,0.32 0.7,0.76 1,1.05l0.36 0.33c0.12,0.1 0.24,0.21 0.37,0.31 0.49,0.38 0.66,0.5 1.22,0.81 1.17,0.65 3.05,1.12 4.16,0.15 0.66,-0.57 0.75,-1.13 0.15,-1.78 -0.13,-0.14 -0.23,-0.25 -0.35,-0.34 -0.58,-0.46 -1.58,-1.3 -2.3,-0.83 -0.14,0.09 -0.15,0.16 -0.41,0.29 -0.6,0.31 -0.99,0.15 -1.52,-0.21 -0.11,-0.08 -0.26,-0.2 -0.37,-0.31 -0.12,-0.12 -0.23,-0.22 -0.34,-0.35 -0.39,-0.45 -0.92,-1.14 -1.11,-1.68 -0.26,-0.7 0.1,-0.97 0.36,-1.47 0.08,-0.16 0.15,-0.29 0.24,-0.43 0.21,-0.34 0.3,-0.47 0.06,-1.04 -0.29,-0.68 -1.29,-2.23 -2.1,-2z"/>
 </g>
</svg>
