<?xml version="1.0" encoding="UTF-8"?>
<!DOCTYPE svg PUBLIC "-//W3C//DTD SVG 1.1//EN" "http://www.w3.org/Graphics/SVG/1.1/DTD/svg11.dtd">
<!-- Creator: CorelDRAW 2018 (64-Bit) -->
<svg xmlns="http://www.w3.org/2000/svg" xml:space="preserve" width="3.0509mm" height="4.3845mm" version="1.1" style="shape-rendering:geometricPrecision; text-rendering:geometricPrecision; image-rendering:optimizeQuality; fill-rule:evenodd; clip-rule:evenodd"
viewBox="0 0 3.19 4.59"
 xmlns:xlink="http://www.w3.org/1999/xlink">
 <defs>
  <style type="text/css">
   <![CDATA[
    .fil0 {fill:#C5C6C6}
   ]]>
  </style>
 </defs>
 <g id="Слой_x0020_1">
  <metadata id="CorelCorpID_0Corel-Layer"/>
  <path class="fil0" d="M0.06 4.47l0 0c-0.1,-0.13 -0.08,-0.32 0.06,-0.42l2.28 -1.75 -2.26 -1.75c-0.13,-0.1 -0.16,-0.29 -0.05,-0.42l0 0c0.1,-0.13 0.29,-0.16 0.42,-0.05l2.57 1.99c0.13,0.1 0.16,0.29 0.05,0.42l0 0c-0.01,0.01 -0.02,0.02 -0.03,0.03 -0.01,0.01 -0.02,0.02 -0.04,0.03l-2.58 1.98c-0.13,0.1 -0.32,0.08 -0.42,-0.06z"/>
 </g>
</svg>
