<?xml version="1.0" encoding="UTF-8"?>
<!DOCTYPE svg PUBLIC "-//W3C//DTD SVG 1.1//EN" "http://www.w3.org/Graphics/SVG/1.1/DTD/svg11.dtd">
<!-- Creator: CorelDRAW 2018 (64-Bit) -->
<svg xmlns="http://www.w3.org/2000/svg" xml:space="preserve" width="3.0509mm" height="4.3845mm" version="1.1" style="shape-rendering:geometricPrecision; text-rendering:geometricPrecision; image-rendering:optimizeQuality; fill-rule:evenodd; clip-rule:evenodd"
viewBox="0 0 7.43 10.67"
 xmlns:xlink="http://www.w3.org/1999/xlink">
 <defs>
  <style type="text/css">
   <![CDATA[
    .fil0 {fill:#C5C6C6}
   ]]>
  </style>
 </defs>
 <g id="Слой_x0020_1">
  <metadata id="CorelCorpID_0Corel-Layer"/>
  <path class="fil0" d="M7.28 10.4l0 0c0.24,-0.31 0.18,-0.75 -0.13,-0.99l-5.3 -4.08 5.27 -4.08c0.31,-0.24 0.36,-0.68 0.13,-0.99l0 0c-0.24,-0.31 -0.68,-0.36 -0.99,-0.13l-5.98 4.63c-0.31,0.24 -0.36,0.68 -0.13,0.99l0 0c0.02,0.02 0.04,0.05 0.06,0.07 0.03,0.03 0.06,0.06 0.09,0.08l6 4.61c0.31,0.24 0.75,0.18 0.99,-0.13z"/>
 </g>
</svg>
