<?xml version="1.0" encoding="UTF-8"?>
<!DOCTYPE svg PUBLIC "-//W3C//DTD SVG 1.1//EN" "http://www.w3.org/Graphics/SVG/1.1/DTD/svg11.dtd">
<!-- Creator: CorelDRAW 2018 (64-Bit) -->
<svg xmlns="http://www.w3.org/2000/svg" xml:space="preserve" width="2.6505mm" height="1.845mm" version="1.1" style="shape-rendering:geometricPrecision; text-rendering:geometricPrecision; image-rendering:optimizeQuality; fill-rule:evenodd; clip-rule:evenodd"
viewBox="0 0 2.85 1.98"
 xmlns:xlink="http://www.w3.org/1999/xlink">
 <defs>
  <style type="text/css">
   <![CDATA[
    .fil0 {fill:#434242}
   ]]>
  </style>
 </defs>
 <g id="Слой_x0020_1">
  <metadata id="CorelCorpID_0Corel-Layer"/>
  <path class="fil0" d="M0.07 0.05l0 0c0.08,-0.06 0.2,-0.05 0.26,0.03l1.1 1.4 1.08 -1.41c0.06,-0.08 0.18,-0.1 0.26,-0.04l0 0c0.08,0.06 0.1,0.18 0.04,0.26l-1.22 1.61c-0.06,0.08 -0.18,0.1 -0.26,0.04l0 0c-0.01,-0.01 -0.01,-0.01 -0.02,-0.02 -0.01,-0.01 -0.01,-0.01 -0.02,-0.02l-1.24 -1.59c-0.06,-0.08 -0.05,-0.2 0.03,-0.26z"/>
 </g>
</svg>
