<?xml version="1.0" encoding="UTF-8"?>
<!DOCTYPE svg PUBLIC "-//W3C//DTD SVG 1.1//EN" "http://www.w3.org/Graphics/SVG/1.1/DTD/svg11.dtd">
<!-- Creator: CorelDRAW 2018 (64-Bit) -->
<svg xmlns="http://www.w3.org/2000/svg" xml:space="preserve" width="1.8592mm" height="2.6502mm" version="1.1" style="shape-rendering:geometricPrecision; text-rendering:geometricPrecision; image-rendering:optimizeQuality; fill-rule:evenodd; clip-rule:evenodd"
viewBox="0 0 1.36 1.93"
 xmlns:xlink="http://www.w3.org/1999/xlink">
 <defs>
  <style type="text/css">
   <![CDATA[
    .fil0 {fill:#23272A}
   ]]>
  </style>
 </defs>
 <g id="Слой_x0020_1">
  <metadata id="CorelCorpID_0Corel-Layer"/>
  <path class="fil0" d="M1.33 0.05l0 0c0.04,0.06 0.03,0.14 -0.03,0.18l-0.97 0.73 0.94 0.75c0.05,0.04 0.06,0.12 0.02,0.18l0 0c-0.04,0.05 -0.12,0.06 -0.18,0.02l-1.07 -0.85c-0.05,-0.04 -0.06,-0.12 -0.02,-0.18l0 0c0,-0 0.01,-0.01 0.01,-0.01 0,-0.01 0.01,-0.01 0.02,-0.01l1.1 -0.82c0.06,-0.04 0.14,-0.03 0.18,0.03z"/>
 </g>
</svg>
