<?xml version="1.0" encoding="UTF-8"?>
<!DOCTYPE svg PUBLIC "-//W3C//DTD SVG 1.1//EN" "http://www.w3.org/Graphics/SVG/1.1/DTD/svg11.dtd">
<!-- Creator: CorelDRAW 2018 (64-Bit) -->
<svg xmlns="http://www.w3.org/2000/svg" xml:space="preserve" width="1.8592mm" height="2.6502mm" version="1.1" style="shape-rendering:geometricPrecision; text-rendering:geometricPrecision; image-rendering:optimizeQuality; fill-rule:evenodd; clip-rule:evenodd"
viewBox="0 0 1.05 1.49"
 xmlns:xlink="http://www.w3.org/1999/xlink">
 <defs>
  <style type="text/css">
   <![CDATA[
    .fil0 {fill:#898989}
   ]]>
  </style>
 </defs>
 <g id="Слой_x0020_1">
  <metadata id="CorelCorpID_0Corel-Layer"/>
  <path class="fil0" d="M0.02 0.04l0 0c-0.03,0.04 -0.02,0.11 0.02,0.14l0.75 0.56 -0.73 0.58c-0.04,0.03 -0.05,0.1 -0.02,0.14l0 0c0.03,0.04 0.1,0.05 0.14,0.02l0.83 -0.66c0.04,-0.03 0.05,-0.1 0.02,-0.14l0 0c-0,-0 -0.01,-0.01 -0.01,-0.01 -0,-0 -0.01,-0.01 -0.01,-0.01l-0.85 -0.63c-0.04,-0.03 -0.11,-0.02 -0.14,0.02z"/>
 </g>
</svg>
