<?xml version="1.0" encoding="UTF-8"?>
<!DOCTYPE svg PUBLIC "-//W3C//DTD SVG 1.1//EN" "http://www.w3.org/Graphics/SVG/1.1/DTD/svg11.dtd">
<!-- Creator: CorelDRAW 2018 (64-Bit) -->
<svg xmlns="http://www.w3.org/2000/svg" xml:space="preserve" width="4.0005mm" height="4.3853mm" version="1.1" style="shape-rendering:geometricPrecision; text-rendering:geometricPrecision; image-rendering:optimizeQuality; fill-rule:evenodd; clip-rule:evenodd"
viewBox="0 0 3.41 3.74"
 xmlns:xlink="http://www.w3.org/1999/xlink">
 <defs>
  <style type="text/css">
   <![CDATA[
    .fil0 {fill:#FEFEFE}
   ]]>
  </style>
 </defs>
 <g id="Слой_x0020_1">
  <metadata id="CorelCorpID_0Corel-Layer"/>
  <path class="fil0" d="M3.03 1.82c0.06,0.19 -0.2,0.28 -0.34,0.36l-1.8 1.02c-0.13,0.08 -0.34,0.24 -0.47,0.1 -0.09,-0.1 -0.04,-1.13 -0.04,-1.36 0,-0.26 -0.03,-1.24 0.01,-1.42 0.02,-0.09 0.1,-0.15 0.2,-0.14 0.09,0.01 1.47,0.83 1.57,0.89 0.15,0.09 0.3,0.17 0.45,0.26 0.11,0.06 0.38,0.18 0.41,0.3zm-2.56 -1.81c-0.22,0.04 -0.41,0.23 -0.44,0.46 -0.03,0.16 -0.02,2.4 -0.01,2.66 0,0.14 0.03,0.26 0.09,0.36 0.04,0.07 0.15,0.17 0.24,0.2 0.29,0.12 0.47,-0 0.68,-0.12 0.3,-0.18 2.15,-1.19 2.25,-1.31 0.15,-0.17 0.2,-0.44 0.06,-0.68 -0.1,-0.17 -0.31,-0.26 -0.51,-0.37l-1.69 -0.97c-0.19,-0.11 -0.38,-0.27 -0.66,-0.22z"/>
 </g>
</svg>
