<?xml version="1.0" encoding="UTF-8"?>
<!DOCTYPE svg PUBLIC "-//W3C//DTD SVG 1.1//EN" "http://www.w3.org/Graphics/SVG/1.1/DTD/svg11.dtd">
<!-- Creator: CorelDRAW 2018 (64-Bit) -->
<svg xmlns="http://www.w3.org/2000/svg" xml:space="preserve" width="5.4244mm" height="7.7955mm" version="1.1" style="shape-rendering:geometricPrecision; text-rendering:geometricPrecision; image-rendering:optimizeQuality; fill-rule:evenodd; clip-rule:evenodd"
viewBox="0 0 7.11 10.22"
 xmlns:xlink="http://www.w3.org/1999/xlink">
 <defs>
  <style type="text/css">
   <![CDATA[
    .fil0 {fill:#FEFEFE}
   ]]>
  </style>
 </defs>
 <g id="Слой_x0020_1">
  <metadata id="CorelCorpID_0Corel-Layer"/>
  <path class="fil0" d="M6.97 9.96l0 -0c0.23,-0.29 0.17,-0.72 -0.12,-0.94l-5.08 -3.9 5.04 -3.91c0.29,-0.23 0.35,-0.65 0.12,-0.94l-0 0c-0.23,-0.29 -0.65,-0.35 -0.94,-0.12l-5.73 4.44c-0.29,0.23 -0.35,0.65 -0.12,0.94l0 0c0.02,0.02 0.04,0.05 0.06,0.07 0.03,0.03 0.05,0.05 0.08,0.08l5.75 4.42c0.29,0.23 0.72,0.17 0.94,-0.12z"/>
 </g>
</svg>
