<?xml version="1.0" encoding="UTF-8"?>
<!DOCTYPE svg PUBLIC "-//W3C//DTD SVG 1.1//EN" "http://www.w3.org/Graphics/SVG/1.1/DTD/svg11.dtd">
<!-- Creator: CorelDRAW 2018 (64-Bit) -->
<svg xmlns="http://www.w3.org/2000/svg" xml:space="preserve" width="1.6984mm" height="2.4408mm" version="1.1" style="shape-rendering:geometricPrecision; text-rendering:geometricPrecision; image-rendering:optimizeQuality; fill-rule:evenodd; clip-rule:evenodd"
viewBox="0 0 1 1.43"
 xmlns:xlink="http://www.w3.org/1999/xlink">
 <defs>
  <style type="text/css">
   <![CDATA[
    .fil0 {fill:#FEFEFE}
   ]]>
  </style>
 </defs>
 <g id="Слой_x0020_1">
  <metadata id="CorelCorpID_0Corel-Layer"/>
  <path class="fil0" d="M0.02 1.4l0 0c-0.03,-0.04 -0.02,-0.1 0.02,-0.13l0.71 -0.55 -0.71 -0.55c-0.04,-0.03 -0.05,-0.09 -0.02,-0.13l0 0c0.03,-0.04 0.09,-0.05 0.13,-0.02l0.8 0.62c0.04,0.03 0.05,0.09 0.02,0.13l0 0c-0,0 -0.01,0.01 -0.01,0.01 -0,0 -0.01,0.01 -0.01,0.01l-0.81 0.62c-0.04,0.03 -0.1,0.02 -0.13,-0.02z"/>
 </g>
</svg>
