<?xml version="1.0" encoding="UTF-8"?>
<!DOCTYPE svg PUBLIC "-//W3C//DTD SVG 1.1//EN" "http://www.w3.org/Graphics/SVG/1.1/DTD/svg11.dtd">
<!-- Creator: CorelDRAW 2018 (64-Bit) -->
<svg xmlns="http://www.w3.org/2000/svg" xml:space="preserve" width="4.1877mm" height="2.6064mm" version="1.1" style="shape-rendering:geometricPrecision; text-rendering:geometricPrecision; image-rendering:optimizeQuality; fill-rule:evenodd; clip-rule:evenodd"
viewBox="0 0 83.93 52.24"
 xmlns:xlink="http://www.w3.org/1999/xlink">
 <defs>
  <style type="text/css">
   <![CDATA[
    .fil0 {fill:#9D9E9E}
   ]]>
  </style>
 </defs>
 <g id="Слой_x0020_1">
  <metadata id="CorelCorpID_0Corel-Layer"/>
  <path class="fil0" d="M5.74 26.12c0,-0.55 2.31,-3.75 2.75,-4.28 6.02,-7.28 11.85,-11.5 21.08,-14.59 1.8,-0.6 3.79,-1.06 5.82,-1.39 1.94,-0.32 3.05,-0.46 4.95,-0.46 0.79,0 1.11,-0.15 1.64,-0.15l3.25 0.17c9.72,1.06 17.68,4.4 24.9,10.79l3.61 3.59c0.95,1.06 4.46,5.47 4.46,6.33 0,1.18 -4.93,6.95 -6.1,8.12 -5.15,5.12 -10.66,8.39 -17.72,10.75 -1.8,0.6 -3.79,1.06 -5.82,1.39 -1.94,0.32 -3.05,0.46 -4.95,0.46 -0.79,-0 -1.11,0.15 -1.63,0.15 -0.52,0 -0.71,-0.14 -1.47,-0.15 -0.59,-0.01 -1.2,0.05 -1.79,-0.02 -9,-0.99 -15.88,-3.72 -22.98,-9.12l-2.91 -2.49c-0.34,-0.33 -0.56,-0.56 -0.9,-0.9 -1.56,-1.55 -6.19,-7.05 -6.19,-8.2zm36.23 15.67c-8.58,0 -15.74,-7.31 -15.74,-14.86 0,-4.36 0.68,-6.88 3.09,-10.15 4.62,-6.27 13.65,-8.22 20.57,-4.11 0.67,0.4 1.19,0.76 1.75,1.19l1.37 1.24c2.05,2.04 3.65,4.78 4.24,7.69 0.91,4.55 -0.15,10.06 -3.28,13.31 -2.16,2.24 -3.63,3.68 -6.98,4.8 -1.27,0.42 -3.43,0.87 -5.02,0.87zm-18.52 -15.67c0,3.59 1.23,7.5 3.09,10.15 3.05,4.34 8.18,8.14 14.45,8.14 5.11,0 7.56,-0.68 11.57,-3.33 4.45,-2.93 7.77,-8.89 7.77,-14.3 0,-6.99 -2.77,-11.9 -7.59,-15.46 -0.76,-0.56 -1.89,-1.3 -2.74,-1.68 -5.82,-2.56 -11.97,-2.51 -17.47,0.72 -1.06,0.62 -3.09,2.16 -3.88,2.99l-1.96 2.46c-1.99,2.96 -3.24,6.33 -3.24,10.32zm19.96 26.12l-2.29 0c-4.75,-0.12 -9.56,-0.99 -14.41,-2.59 -1.08,-0.36 -2.03,-0.77 -3.07,-1.19 -1.68,-0.68 -2.81,-1.37 -4.17,-2.05 -3.38,-1.67 -6.88,-4.3 -9.66,-6.87 -1.64,-1.51 -2.62,-2.29 -4.13,-4.21 -1.35,-1.72 -5.67,-7.12 -5.67,-8.72l0 -0.98c0,-1.23 3.92,-6.63 4.82,-7.77 1.18,-1.5 2.66,-3.01 3.99,-4.35l4.44 -3.74c2.35,-1.75 5.04,-3.46 7.67,-4.77 1.81,-0.9 3.88,-1.79 5.89,-2.46 5.98,-1.97 9.45,-2.55 16.29,-2.55 8.87,0 20.55,4.1 27.65,9.84l7.5 7.06c1,1.28 1.71,1.98 2.72,3.5 0.52,0.78 2.95,4.34 2.95,5.22l0 0.98c0,0.98 -2.28,4.26 -3.02,5.32 -0.61,0.88 -1.14,1.61 -1.81,2.45 -3.63,4.6 -8.43,8.43 -13.47,11.4 -0.89,0.52 -1.71,1 -2.64,1.46 -6.43,3.18 -12.96,4.83 -19.6,5z"/>
 </g>
</svg>
