<?xml version="1.0" encoding="UTF-8"?>
<!DOCTYPE svg PUBLIC "-//W3C//DTD SVG 1.1//EN" "http://www.w3.org/Graphics/SVG/1.1/DTD/svg11.dtd">
<!-- Creator: CorelDRAW 2018 (64-Bit) -->
<svg xmlns="http://www.w3.org/2000/svg" xml:space="preserve" width="3.4138mm" height="4.2043mm" version="1.1" style="shape-rendering:geometricPrecision; text-rendering:geometricPrecision; image-rendering:optimizeQuality; fill-rule:evenodd; clip-rule:evenodd"
viewBox="0 0 6.15 7.58"
 xmlns:xlink="http://www.w3.org/1999/xlink">
 <defs>
  <style type="text/css">
   <![CDATA[
    .fil1 {fill:#FEFEFE}
    .fil0 {fill:#328AE3}
   ]]>
  </style>
 </defs>
 <g id="Слой_x0020_1">
  <metadata id="CorelCorpID_0Corel-Layer"/>
  <g id="_2661090304496">
   <path class="fil0" d="M4.11 6.92l1.29 -1.3c0.17,-0.17 0.27,-0.28 0.39,-0.47 0.27,-0.41 0.36,-0.82 0.36,-1.36 0,-0.57 0,-1.14 0,-1.71 0,-0.28 0.01,-0.59 -0,-0.86 -0.03,-0.48 -0.35,-0.82 -0.82,-0.9 -0.25,-0.04 -0.5,-0.07 -0.75,-0.11 -0.37,-0.06 -0.76,-0.1 -1.11,-0.17 -0.11,-0.02 -0.27,-0.05 -0.38,-0.05 -0.11,-0 -0.27,0.03 -0.38,0.05 -0.36,0.06 -0.74,0.11 -1.11,0.17 -0.25,0.04 -0.5,0.07 -0.75,0.11 -0.47,0.07 -0.8,0.41 -0.82,0.9 -0.01,0.27 -0,0.58 -0,0.86 0,0.57 0,1.14 0,1.71 0,0.55 0.09,0.95 0.36,1.36 0.12,0.19 0.22,0.29 0.39,0.47l1.29 1.3c0.28,0.28 0.56,0.66 1.03,0.66 0.44,-0.01 0.75,-0.38 1.03,-0.66z"/>
   <path class="fil1" d="M3.09 1.02c0.66,0.01 1.21,0.54 1.21,1.22 0,0.69 -0.54,1.21 -1.21,1.23 -0.67,-0.02 -1.21,-0.54 -1.21,-1.23 0,-0.68 0.55,-1.21 1.21,-1.22zm0 2.75c-0.76,-0.01 -0.84,-0.39 -1.25,-0.25 -0.33,0.11 -0.52,0.64 -0.59,0.96 -0.04,0.19 -0.09,0.22 -0.03,0.29 0.49,0.52 1.15,0.83 1.87,0.83 0.72,-0 1.38,-0.31 1.87,-0.83 0.06,-0.07 0.01,-0.1 -0.03,-0.29 -0.07,-0.31 -0.26,-0.85 -0.59,-0.96 -0.41,-0.14 -0.48,0.24 -1.25,0.25z"/>
  </g>
 </g>
</svg>
