<?xml version="1.0" encoding="UTF-8"?>
<!DOCTYPE svg PUBLIC "-//W3C//DTD SVG 1.1//EN" "http://www.w3.org/Graphics/SVG/1.1/DTD/svg11.dtd">
<!-- Creator: CorelDRAW 2018 (64-Bit) -->
<svg xmlns="http://www.w3.org/2000/svg" xml:space="preserve" width="4.1336mm" height="2.8766mm" version="1.1" style="shape-rendering:geometricPrecision; text-rendering:geometricPrecision; image-rendering:optimizeQuality; fill-rule:evenodd; clip-rule:evenodd"
viewBox="0 0 6.19 4.31"
 xmlns:xlink="http://www.w3.org/1999/xlink">
 <defs>
  <style type="text/css">
   <![CDATA[
    .fil0 {fill:#C5C6C6}
   ]]>
  </style>
 </defs>
 <g id="Слой_x0020_1">
  <metadata id="CorelCorpID_0Corel-Layer"/>
  <path class="fil0" d="M0.16 0.08l0 0c0.18,-0.14 0.44,-0.1 0.57,0.07l2.36 3.08 2.37 -3.05c0.14,-0.18 0.39,-0.21 0.57,-0.07l0 0c0.18,0.14 0.21,0.39 0.07,0.57l-2.69 3.47c-0.14,0.18 -0.39,0.21 -0.57,0.07l0 0c-0.01,-0.01 -0.03,-0.02 -0.04,-0.04 -0.02,-0.02 -0.03,-0.03 -0.05,-0.05l-2.67 -3.48c-0.14,-0.18 -0.1,-0.44 0.07,-0.57z"/>
 </g>
</svg>
