<?xml version="1.0" encoding="UTF-8"?>
<!DOCTYPE svg PUBLIC "-//W3C//DTD SVG 1.1//EN" "http://www.w3.org/Graphics/SVG/1.1/DTD/svg11.dtd">
<!-- Creator: CorelDRAW 2018 (64-Bit) -->
<svg xmlns="http://www.w3.org/2000/svg" xml:space="preserve" width="6.2131mm" height="4.9775mm" version="1.1" style="shape-rendering:geometricPrecision; text-rendering:geometricPrecision; image-rendering:optimizeQuality; fill-rule:evenodd; clip-rule:evenodd"
viewBox="0 0 244.25 195.68"
 xmlns:xlink="http://www.w3.org/1999/xlink">
 <defs>
  <style type="text/css">
   <![CDATA[
    .fil0 {fill:#328AE3}
   ]]>
  </style>
 </defs>
 <g id="Слой_x0020_1">
  <metadata id="CorelCorpID_0Corel-Layer"/>
  <path class="fil0" d="M244.25 9.98l0 105.54c-7.86,13.26 -8.33,7.89 -24.46,10.59 -0.22,10.02 1.43,33.51 -1.47,40.81 -8.29,2.64 -10.92,-3.71 -15.65,-8.43l-26.07 -26.04c-11.44,-11.57 -4.86,-3.55 -19.46,-7.76 -1.96,-4.74 -1.95,-4.22 -0.25,-9.25 4.51,-1.42 14.58,-2.25 18.88,0.47 1.97,1.24 8.69,8.56 10.92,10.78 7.37,7.34 14.16,14.28 21.4,21.37 0.87,-8.57 -0.77,-20.13 0.35,-27.89 1.4,-9.8 14.8,-4.21 22.7,-6.23l0.94 -1.69c1.72,-5.12 0.75,-42.68 0.75,-48.53 0,-10.33 1.27,-44.27 -0.76,-51.88 -9.49,-1.17 -124.47,-0.36 -146.32,-0.36l-16.33 -0.03c-2.94,0.35 0.75,-0.37 -1.92,0.34 -7.64,2.03 -1.82,24.49 -3.21,39.01 -0.71,7.36 -7.88,8.24 -10.45,3.62 -2.32,-4.18 -0.87,-13.55 -0.87,-18.93 0,-38.8 -1.91,-35.42 43.62,-35.42l136.16 0.27c6.68,1.15 8.48,5.45 11.48,9.63zm-200.49 97.43c-3.64,0 -6.58,2.95 -6.58,6.58 0,3.64 2.94,6.58 6.58,6.58 3.63,0 6.58,-2.94 6.58,-6.58 0,-3.63 -2.95,-6.58 -6.58,-6.58zm26.32 0c-3.63,0 -6.58,2.95 -6.58,6.58 0,3.64 2.95,6.58 6.58,6.58 3.64,0 6.58,-2.94 6.58,-6.58 0,-3.63 -2.94,-6.58 -6.58,-6.58zm28.96 0c-3.64,0 -6.58,2.95 -6.58,6.58 0,3.64 2.94,6.58 6.58,6.58 3.63,0 6.58,-2.94 6.58,-6.58 0,-3.63 -2.95,-6.58 -6.58,-6.58zm98.52 -19.74c-13.37,0 -27.15,0.85 -40.39,-0.88 -6.09,-14.62 10.19,-10.5 40.39,-10.5 13.06,0 12,11.38 0,11.38zm1.09 -38.06l-99.87 0c-4.68,0 -4.7,-0.44 -7.47,-2.19 -1.41,-6.54 0.88,-9.18 7.47,-9.18l99.87 0c12.12,0 10,11.37 0,11.37zm-68.14 103.57c1.12,-10.19 0.26,-43.57 0.33,-57.98 0.04,-8.44 2.48,-13.22 -5.46,-13.22 -21.74,-0.01 -97.57,-1.02 -113.43,0.4 -1.21,11.79 -0.54,51.51 -0.54,66.03 0,9.99 4.78,2.71 16.18,6.21 2.6,6.2 1.71,13.06 1.71,21.15 5.83,-4.1 10.85,-10.33 16.1,-15.61 8.74,-8.8 8.09,-6.51 24.07,-6.51 14.05,0 50.08,1.67 61.04,-0.47zm-130.52 0.95l0 -72.35c3.1,-5.4 3.63,-10.77 15.15,-11.18 29.52,-1.07 76.52,0.03 108.65,-0.02 8.75,-0.01 15.13,1.9 17.53,9.2 1.93,5.86 0.87,44.31 0.87,53.43 0,35.93 6.03,32.65 -77.11,31.71 -6.08,-0.07 -7.16,-0.9 -10.58,2.16l-20.56 20.71c-23.83,23.86 -13.74,-13.19 -16.09,-20.93 -1.26,-4.14 -4.95,-0.08 -11.59,-4.09 -4.53,-2.74 -3.73,-4.05 -6.29,-8.63z"/>
 </g>
</svg>
