<?xml version="1.0" encoding="UTF-8"?>
<!DOCTYPE svg PUBLIC "-//W3C//DTD SVG 1.1//EN" "http://www.w3.org/Graphics/SVG/1.1/DTD/svg11.dtd">
<!-- Creator: CorelDRAW 2018 (64-Bit) -->
<svg xmlns="http://www.w3.org/2000/svg" xml:space="preserve" width="3.2948mm" height="3.293mm" version="1.1" style="shape-rendering:geometricPrecision; text-rendering:geometricPrecision; image-rendering:optimizeQuality; fill-rule:evenodd; clip-rule:evenodd"
viewBox="0 0 2.41 2.41"
 xmlns:xlink="http://www.w3.org/1999/xlink">
 <defs>
  <style type="text/css">
   <![CDATA[
    .fil0 {fill:#2B2A29}
   ]]>
  </style>
 </defs>
 <g id="Слой_x0020_1">
  <metadata id="CorelCorpID_0Corel-Layer"/>
  <path class="fil0" d="M1.76 1.67c0.06,-0.02 0.11,0.01 0.15,0.05 0.03,0.03 0.06,0.06 0.09,0.09l0.35 0.35c0.04,0.04 0.07,0.08 0.06,0.14 -0.02,0.13 -0.16,0.16 -0.25,0.07l-0.43 -0.43c-0.09,-0.09 -0.09,-0.22 0.04,-0.26zm-0.87 -1.66c0.14,-0.01 0.29,0.01 0.42,0.06 0.12,0.04 0.21,0.1 0.3,0.18 0.31,0.26 0.41,0.7 0.27,1.08 -0.23,0.63 -1.04,0.83 -1.55,0.39 -0.27,-0.24 -0.39,-0.59 -0.31,-0.95 0.1,-0.42 0.44,-0.71 0.87,-0.76zm0.81 0.79c-0.16,-0.61 -0.93,-0.77 -1.32,-0.28 -0.06,0.08 -0.11,0.17 -0.13,0.27 -0.07,0.26 0.01,0.53 0.19,0.72 0.26,0.27 0.67,0.29 0.97,0.08 0.25,-0.17 0.36,-0.5 0.29,-0.79z"/>
 </g>
</svg>
