<?xml version="1.0" encoding="UTF-8"?>
<!DOCTYPE svg PUBLIC "-//W3C//DTD SVG 1.1//EN" "http://www.w3.org/Graphics/SVG/1.1/DTD/svg11.dtd">
<!-- Creator: CorelDRAW 2018 (64-Bit) -->
<svg xmlns="http://www.w3.org/2000/svg" xml:space="preserve" width="4.4864mm" height="3.123mm" version="1.1" style="shape-rendering:geometricPrecision; text-rendering:geometricPrecision; image-rendering:optimizeQuality; fill-rule:evenodd; clip-rule:evenodd"
viewBox="0 0 4.48 3.12"
 xmlns:xlink="http://www.w3.org/1999/xlink">
 <defs>
  <style type="text/css">
   <![CDATA[
    .fil0 {fill:#328AE3}
   ]]>
  </style>
 </defs>
 <g id="Слой_x0020_1">
  <metadata id="CorelCorpID_0Corel-Layer"/>
  <path class="fil0" d="M0.11 0.08l0 -0c0.13,-0.1 0.31,-0.08 0.41,0.05l1.73 2.21 1.69 -2.22c0.1,-0.13 0.28,-0.15 0.41,-0.06l0 0c0.13,0.1 0.15,0.28 0.06,0.41l-1.92 2.53c-0.1,0.13 -0.28,0.15 -0.41,0.06l0 0c-0.01,-0.01 -0.02,-0.02 -0.03,-0.03 -0.01,-0.01 -0.02,-0.02 -0.03,-0.04l-1.96 -2.5c-0.1,-0.13 -0.08,-0.31 0.05,-0.41z"/>
 </g>
</svg>
