<?xml version="1.0" encoding="UTF-8"?>
<!DOCTYPE svg PUBLIC "-//W3C//DTD SVG 1.1//EN" "http://www.w3.org/Graphics/SVG/1.1/DTD/svg11.dtd">
<!-- Creator: CorelDRAW 2018 (64-Bit) -->
<svg xmlns="http://www.w3.org/2000/svg" xml:space="preserve" width="1.9185mm" height="2.051mm" version="1.1" style="shape-rendering:geometricPrecision; text-rendering:geometricPrecision; image-rendering:optimizeQuality; fill-rule:evenodd; clip-rule:evenodd"
viewBox="0 0 1.57 1.68"
 xmlns:xlink="http://www.w3.org/1999/xlink">
 <defs>
  <style type="text/css">
   <![CDATA[
    .fil0 {fill:#328AE3}
   ]]>
  </style>
 </defs>
 <g id="Слой_x0020_1">
  <metadata id="CorelCorpID_0Corel-Layer"/>
  <path class="fil0" d="M0.24 1.67c-0.06,-0.02 -0.11,-0.05 -0.15,-0.09l-0.03 -0.03c-0.17,-0.21 0.06,-0.41 0.19,-0.55 0.13,-0.13 0.27,-0.26 0.4,-0.4 0.07,-0.06 0.15,-0.15 0.21,-0.21 0.04,-0.04 0.08,-0.08 0.14,-0.1 0.08,-0.02 0.14,-0.01 0.19,0.03 0.11,0.08 0.14,0.21 0.04,0.34 -0.03,0.04 -0.09,0.09 -0.12,0.13l-0.24 0.24c-0.04,0.04 -0.08,0.08 -0.12,0.12 -0.04,0.04 -0.08,0.08 -0.12,0.12 -0.02,0.02 -0.04,0.05 -0.08,0.04 -0.03,-0.01 -0.05,-0.04 -0.03,-0.08 0.01,-0.02 0.06,-0.06 0.08,-0.08l0.54 -0.54c0.03,-0.03 0.08,-0.11 0.05,-0.17 -0.03,-0.05 -0.09,-0.08 -0.16,-0.05 -0.02,0.01 -0.04,0.02 -0.05,0.04 -0.01,0.01 -0.01,0.01 -0.01,0.02l-0.64 0.64c-0.05,0.05 -0.1,0.1 -0.15,0.16 -0.03,0.04 -0.08,0.11 -0.05,0.18 0.02,0.05 0.08,0.1 0.12,0.12 0.14,0.07 0.29,-0.08 0.36,-0.16l0.46 -0.46c0.08,-0.08 0.16,-0.16 0.24,-0.24 0.02,-0.02 0.04,-0.04 0.06,-0.06 0.02,-0.02 0.04,-0.05 0.05,-0.07 0.03,-0.05 0.06,-0.11 0.05,-0.19 -0,-0.07 -0.03,-0.13 -0.07,-0.17 -0.04,-0.04 -0.09,-0.08 -0.15,-0.09 -0.13,-0.03 -0.25,0.07 -0.34,0.15l-0.67 0.67c-0.03,0.02 -0.07,0.02 -0.08,-0.01 -0.02,-0.04 0.01,-0.07 0.03,-0.08l0.69 -0.69c0.04,-0.04 0.07,-0.06 0.12,-0.09 0.07,-0.04 0.15,-0.06 0.22,-0.06 0.01,0 0.07,-0 0.16,0.05 0.14,0.08 0.23,0.23 0.2,0.41 -0.01,0.03 -0.01,0.05 -0.02,0.08 -0.01,0.01 -0.01,0.02 -0.02,0.04l-0.02 0.03c-0.01,0.02 -0.03,0.04 -0.04,0.06l-0.81 0.82c-0.01,0.01 -0.05,0.04 -0.06,0.06l-0.06 0.05c-0.02,0.01 -0.04,0.03 -0.06,0.04 -0.02,0.01 -0.05,0.03 -0.07,0.03 -0.06,0.02 -0.11,0.02 -0.17,0.01z"/>
 </g>
</svg>
