<?xml version="1.0" encoding="UTF-8"?>
<!DOCTYPE svg PUBLIC "-//W3C//DTD SVG 1.1//EN" "http://www.w3.org/Graphics/SVG/1.1/DTD/svg11.dtd">
<!-- Creator: CorelDRAW 2018 (64-Bit) -->
<svg xmlns="http://www.w3.org/2000/svg" xml:space="preserve" width="5.727mm" height="5.5449mm" version="1.1" style="shape-rendering:geometricPrecision; text-rendering:geometricPrecision; image-rendering:optimizeQuality; fill-rule:evenodd; clip-rule:evenodd"
viewBox="0 0 56.63 54.83"
 xmlns:xlink="http://www.w3.org/1999/xlink">
 <defs>
  <style type="text/css">
   <![CDATA[
    .fil0 {fill:#328AE3}
   ]]>
  </style>
 </defs>
 <g id="Слой_x0020_1">
  <metadata id="CorelCorpID_0Corel-Layer"/>
  <path class="fil0" d="M12.88 54.83c2.1,0 2.53,-0.72 4.3,-1.59l6.23 -3.34c0.79,-0.42 4.31,-2.51 4.91,-2.51 1.63,0 12.68,7.43 14.65,7.44l0.79 0c1.9,0 3.3,-1.82 3.3,-3.64 -0.02,-1.93 -0.88,-5.8 -1.22,-7.82 -0.42,-2.51 -0.79,-5.37 -1.36,-7.83l-0.07 -0.29 11.36 -11.32c0.49,-0.61 0.81,-1.3 0.87,-2.07l0 -0.6c-0.11,-1.36 -1,-2.53 -2.3,-2.97 -0.78,-0.27 -1.72,-0.38 -2.54,-0.49 -0.92,-0.13 -1.83,-0.27 -2.75,-0.41l-9.62 -1.41c-0.79,-0.1 -1.05,-0.03 -1.45,-0.84l-3.03 -6.32c-0.35,-0.71 -0.72,-1.4 -1.06,-2.11l-1.54 -3.19c-0.63,-1.3 -0.59,-1.7 -1.71,-2.75 -0.48,-0.45 -1.13,-0.71 -1.75,-0.78l-0.95 -0c-1.44,0.17 -2.49,1.11 -3.11,2.36l-3.57 7.49c-0.17,0.35 -0.35,0.7 -0.53,1.05 -0.7,1.41 -1.35,2.84 -2.06,4.25 -0.52,1.05 -1.74,0.85 -2.72,1 -0.92,0.14 -1.83,0.28 -2.75,0.41 -1.82,0.25 -3.64,0.51 -5.45,0.78 -1.19,0.18 -4.32,0.52 -5.34,0.9 -1.27,0.48 -2.39,1.66 -2.39,3.08 0,1.19 0.08,1.59 0.8,2.52l9.55 9.58c0.46,0.46 1.06,1.19 1.58,1.54l0.31 0.2 -0.08 0.36c-0.58,2.49 -0.89,5.23 -1.31,7.77 -0.4,2.42 -1.26,5.87 -1.26,8.22 0,1.63 1.67,3.3 3.3,3.3zm-9.13 -33.81c1.74,0 5.05,-0.68 6.87,-0.95 2.28,-0.34 4.56,-0.71 6.84,-1.04 1.43,-0.2 2.4,-0.3 3.39,-1.41 0.65,-0.72 1.27,-2.45 1.73,-3.37l5.86 -11.72 5.58 11.64c0.48,0.97 1.06,2.61 1.73,3.39 0.93,1.1 1.95,1.25 3.33,1.44 1.54,0.22 3.08,0.44 4.61,0.69l10.32 1.47 -3.87 3.94c-1.07,1.07 -2.14,2.14 -3.21,3.21l-4.7 4.71c-1.54,1.9 -0.65,4.17 -0.29,6.33l1.29 7.73c0.11,0.64 0.21,1.29 0.32,1.93 0.12,0.73 0.3,1.42 0.3,2.16l0 0.89 -12.43 -6.7c-1.87,-1.01 -3.18,-1.68 -5.21,-0.49l-1.85 0.99c-3.64,1.81 -7.17,3.87 -10.77,5.78l-0.78 0.42 0 -0.89c0,-1.7 0.77,-5.19 1.07,-6.96 0.38,-2.23 0.77,-4.46 1.14,-6.7 0.57,-3.4 0.37,-3.54 -2.08,-5.99l-7.94 -7.94c-0.53,-0.53 -1.26,-1.13 -1.67,-1.74l-0.56 -0.83 1 0z"/>
 </g>
</svg>
