<?xml version="1.0" encoding="UTF-8"?>
<!DOCTYPE svg PUBLIC "-//W3C//DTD SVG 1.1//EN" "http://www.w3.org/Graphics/SVG/1.1/DTD/svg11.dtd">
<!-- Creator: CorelDRAW 2018 (64-Bit) -->
<svg xmlns="http://www.w3.org/2000/svg" xml:space="preserve" width="3.8534mm" height="3.2024mm" version="1.1" style="shape-rendering:geometricPrecision; text-rendering:geometricPrecision; image-rendering:optimizeQuality; fill-rule:evenodd; clip-rule:evenodd"
viewBox="0 0 16.62 13.81"
 xmlns:xlink="http://www.w3.org/1999/xlink">
 <defs>
  <style type="text/css">
   <![CDATA[
    .fil0 {fill:#FEFEFE}
   ]]>
  </style>
 </defs>
 <g id="Слой_x0020_1">
  <metadata id="CorelCorpID_0Corel-Layer"/>
  <path class="fil0" d="M8.88 11.35c-0.73,0.57 -1.59,1.47 -2.37,1.85l-0.05 0.03 -0.05 -0.02c-1.4,-0.55 -1.55,-2.7 -1.94,-3.98 -0.1,-0.32 -0.24,-0.68 -0.53,-0.87 -0.28,-0.18 -0.75,-0.23 -1.07,-0.29 -0.7,-0.13 -1.33,-0.3 -1.99,-0.58 -1.4,-0.58 -0.94,-1.8 0.28,-2.26 3.59,-1.36 7.17,-2.73 10.77,-4.06 1.34,-0.49 5.23,-2.69 4.65,0.61 -0.36,2.05 -0.94,4.04 -1.36,6.08 -0.21,1.02 -0.89,5.42 -1.77,5.84 -1.31,0.63 -3.24,-1.68 -4.55,-2.36zm-1.41 -2.32c1.08,0.95 2.32,1.73 3.47,2.58 2.04,1.49 1.93,2.22 2.6,-0.7 0.36,-1.57 2.11,-8.53 2.07,-9.92 -1.45,0.19 -11.35,4.11 -13.08,4.77 -0.44,0.17 -1.13,0.31 -1.44,0.7 0.64,0.4 2.87,1.1 3.44,1.06 1.35,-0.1 8.26,-5.56 9.14,-4.61 0.98,1.05 -5.41,4.8 -6.2,6.13zm2.88 -3.65l-0.64 0.35c-0.74,0.34 -3.87,2.12 -4.49,2.69l0.74 2.34c0.04,-0.62 0.08,-1.4 0.2,-1.71 0.25,-0.69 3.04,-2.8 3.63,-3.31l0.02 -0.01 0.02 -0.01c0.23,-0.1 0.4,-0.21 0.54,-0.34zm-3.43 6.3l1.13 -0.87c-0.22,-0.39 -0.62,-0.69 -1.05,-0.82l-0.08 1.69z"/>
 </g>
</svg>
