<?xml version="1.0" encoding="UTF-8"?>
<!DOCTYPE svg PUBLIC "-//W3C//DTD SVG 1.1//EN" "http://www.w3.org/Graphics/SVG/1.1/DTD/svg11.dtd">
<!-- Creator: CorelDRAW 2018 (64-Bit) -->
<svg xmlns="http://www.w3.org/2000/svg" xml:space="preserve" width="4.4377mm" height="4.9136mm" version="1.1" style="shape-rendering:geometricPrecision; text-rendering:geometricPrecision; image-rendering:optimizeQuality; fill-rule:evenodd; clip-rule:evenodd"
viewBox="0 0 12.04 13.33"
 xmlns:xlink="http://www.w3.org/1999/xlink">
 <defs>
  <style type="text/css">
   <![CDATA[
    .fil0 {fill:#FEFEFE}
   ]]>
  </style>
 </defs>
 <g id="Слой_x0020_1">
  <metadata id="CorelCorpID_0Corel-Layer"/>
  <path class="fil0" d="M2.84 13.21c-0.05,-0.76 0,-1.56 -0,-2.33 -0,-0.26 -0.12,-0.23 -0.34,-0.34 -0.37,-0.17 -0.7,-0.3 -1.02,-0.57 -0.22,-0.19 -0.31,-0.26 -0.49,-0.49 -0.03,-0.04 -0.06,-0.07 -0.09,-0.11 -0.06,-0.08 -0.11,-0.16 -0.16,-0.25 -0.86,-1.47 -0.85,-3.79 -0.56,-5.43 0.2,-1.16 0.49,-1.83 1.42,-2.57 1.72,-1.37 5.21,-1.3 7.24,-0.77 0.74,0.19 1.58,0.51 2.1,1.09 0.62,0.7 0.8,1.32 0.95,2.24 0.26,1.61 0.27,4 -0.54,5.44 -0.41,0.72 -1,1.14 -1.77,1.43 -1.3,0.48 -2.83,0.54 -4.21,0.51 -0.35,-0.01 -0.25,0.02 -0.46,0.24l-1.34 1.39c-0.15,0.14 -0.44,0.54 -0.61,0.61l-0.11 0.04 -0.01 -0.11zm0.61 -1.3c0.3,-0.33 0.62,-0.64 0.92,-0.97 0.67,-0.72 0.71,-0.5 1.68,-0.5 0.44,-0 0.89,-0.01 1.33,-0.07 0.7,-0.08 1.62,-0.22 2.25,-0.53 0.7,-0.34 1.02,-0.69 1.34,-1.39 0.28,-0.63 0.42,-1.65 0.45,-2.34 0.04,-0.87 -0.04,-1.73 -0.19,-2.58 -0.16,-0.92 -0.49,-1.63 -1.31,-2.12 -0.14,-0.08 -0.3,-0.16 -0.45,-0.22 -0.34,-0.14 -0.71,-0.24 -1.07,-0.31 -1.93,-0.4 -4.21,-0.47 -6.01,0.45 -0.32,0.16 -0.53,0.34 -0.78,0.59 -0.56,0.57 -0.72,1.13 -0.84,1.9 -0.24,1.47 -0.28,3.52 0.42,4.86 0.65,1.24 1.68,1.08 2.12,1.69 0.07,0.09 0.11,0.2 0.13,0.31 0.06,0.36 0.02,0.83 0.01,1.23z"/>
  <path class="fil0" d="M6.37 4.23c-0.18,0.06 -0.2,0.25 0,0.31 0.31,0.08 0.55,0.13 0.66,0.53 0.04,0.16 0.02,0.39 0.25,0.33 0.22,-0.06 0.09,-0.57 -0.11,-0.83 -0.09,-0.12 -0.52,-0.43 -0.8,-0.34zm-0.24 -0.78c-0.16,0.05 -0.17,0.27 -0.01,0.32 0.34,0.11 0.79,0.04 1.29,0.58 0.04,0.05 0.07,0.1 0.11,0.16 0.07,0.12 0.12,0.24 0.16,0.37 0.15,0.45 0.04,0.85 0.34,0.74 0.19,-0.07 0.06,-0.72 0,-0.88 -0.17,-0.5 -0.52,-0.9 -1.02,-1.12 -0.16,-0.07 -0.7,-0.24 -0.88,-0.18zm-0.23 -0.74c-0.1,0.03 -0.16,0.14 -0.11,0.24 0.04,0.09 0.2,0.08 0.3,0.09 0.7,0.09 1.17,0.29 1.67,0.71 0.41,0.35 0.68,1.08 0.75,1.63 0.04,0.29 -0.01,0.59 0.25,0.55 0.29,-0.05 0.03,-1.11 -0.04,-1.31 -0.07,-0.2 -0.15,-0.38 -0.24,-0.55 -0.12,-0.21 -0.13,-0.2 -0.24,-0.35 -0.2,-0.27 -0.61,-0.61 -1.02,-0.77 -0.24,-0.09 -1.06,-0.31 -1.32,-0.24zm2.05 4.18c-0.09,-0.04 -0.15,-0.08 -0.23,-0.14 -0.06,-0.04 -0.17,-0.07 -0.21,-0.1 -0.22,-0.04 -0.37,-0.02 -0.51,0.09 -0.25,0.2 -0.33,0.58 -0.8,0.43 -0.09,-0.03 -0.38,-0.16 -0.41,-0.21 -0.09,-0.04 -0.23,-0.11 -0.29,-0.2 -0.1,-0.02 -0.31,-0.25 -0.39,-0.33 -0.28,-0.26 -0.85,-1.07 -0.46,-1.46 0.33,-0.33 0.63,-0.37 0.35,-0.91 -0.21,-0.41 -0.33,-0.55 -0.6,-0.87 -0.2,-0.24 -0.46,-0.57 -0.98,-0.33 -0.3,0.14 -0.58,0.41 -0.67,0.81 -0.09,0.44 0.11,0.81 0.27,1.15 0.23,0.49 0.51,0.97 0.82,1.38 0.1,0.14 0.22,0.3 0.33,0.41 0.05,0.05 0.04,0.04 0.08,0.09 0.04,0.06 0.04,0.04 0.09,0.09 0.12,0.12 0.4,0.44 0.55,0.56 0.33,0.27 0.36,0.34 0.81,0.65 0.37,0.26 1.5,0.94 1.94,1 0.21,0.03 0.43,-0.07 0.59,-0.15 0.09,-0.05 0.15,-0.1 0.22,-0.15 0.26,-0.2 0.73,-0.81 0.32,-1.18 -0.13,-0.12 -0.26,-0.22 -0.41,-0.33l-0.32 -0.23c-0.04,-0.03 -0.07,-0.04 -0.09,-0.07z"/>
 </g>
</svg>
