<?xml version="1.0" encoding="UTF-8"?>
<!DOCTYPE svg PUBLIC "-//W3C//DTD SVG 1.1//EN" "http://www.w3.org/Graphics/SVG/1.1/DTD/svg11.dtd">
<!-- Creator: CorelDRAW 2018 (64-Bit) -->
<svg xmlns="http://www.w3.org/2000/svg" xml:space="preserve" width="4.2961mm" height="4.3118mm" version="1.1" style="shape-rendering:geometricPrecision; text-rendering:geometricPrecision; image-rendering:optimizeQuality; fill-rule:evenodd; clip-rule:evenodd"
viewBox="0 0 14.57 14.63"
 xmlns:xlink="http://www.w3.org/1999/xlink">
 <defs>
  <style type="text/css">
   <![CDATA[
    .fil0 {fill:#FEFEFE}
   ]]>
  </style>
 </defs>
 <g id="Слой_x0020_1">
  <metadata id="CorelCorpID_0Corel-Layer"/>
  <path class="fil0" d="M0.17 14.63l1.19 -0.34c0.52,-0.15 1.03,-0.29 1.55,-0.44 0.12,-0.04 0.25,-0.07 0.37,-0.11 0.24,-0.07 0.36,-0.13 0.6,0.01 0.21,0.12 0.43,0.22 0.65,0.31 2.46,1 5.44,0.56 7.46,-1.18 0.72,-0.63 1.29,-1.31 1.74,-2.16 1.52,-2.86 0.95,-6.34 -1.33,-8.61 -1.49,-1.48 -3.56,-2.23 -5.65,-2.08 -2.05,0.15 -3.8,1.1 -5.11,2.66 -1.84,2.2 -2.18,5.65 -0.74,8.14 0.23,0.4 0.09,0.55 -0.01,0.97 -0.12,0.53 -0.27,1.07 -0.4,1.6 -0.1,0.38 -0.23,0.83 -0.32,1.24zm3.62 -1.91c-0.05,0.01 -0.13,0.04 -0.18,0.05 -0.62,0.18 -1.23,0.37 -1.86,0.53l-0.32 0.09 0.03 -0.33c0.02,-0.27 0.13,-0.58 0.2,-0.85l0.31 -1.23c0,-0.02 0.01,-0.05 0.01,-0.07 -0.02,-0.03 -0.05,-0.07 -0.08,-0.11 -0.14,-0.22 -0.27,-0.46 -0.39,-0.7 -1.54,-3.14 -0.16,-7.09 2.98,-8.6 2.19,-1.05 4.67,-0.86 6.65,0.55 0.82,0.59 1.51,1.4 1.98,2.29 0.6,1.16 0.75,2.21 0.69,3.52l-0.03 0.31c-0.15,0.74 -0.23,1.16 -0.55,1.87 -0.25,0.56 -0.58,1.03 -0.96,1.5 -0.73,0.9 -1.89,1.62 -2.99,1.97 -1.65,0.51 -3.54,0.34 -5.05,-0.51 -0.12,-0.07 -0.33,-0.22 -0.45,-0.28zm4.41 -3.31c-0.32,-0.03 -1.16,-0.53 -1.44,-0.73 -0.68,-0.48 -1.14,-0.93 -1.51,-1.69 -0.14,-0.28 -0.12,-0.38 0.08,-0.6 0.08,-0.08 0.15,-0.17 0.23,-0.25 0.18,-0.19 0.26,-0.26 0.2,-0.54 -0.04,-0.23 -0.16,-0.48 -0.25,-0.7 -0.13,-0.34 -0.24,-0.95 -0.72,-0.87 -0.33,0.06 -0.78,0.52 -0.93,0.81 -0.44,0.8 0.23,2.07 0.64,2.77 0.44,0.74 1.17,1.53 1.9,1.99 0.8,0.5 1.9,1.01 2.87,1.01 0.78,0 1.43,-0.21 1.52,-1.07 0.02,-0.23 -0.02,-0.32 -0.21,-0.44 -0.22,-0.14 -1.02,-0.61 -1.25,-0.6 -0.18,0.01 -0.33,0.21 -0.44,0.33 -0.16,0.18 -0.33,0.35 -0.5,0.52l-0.08 0.08 -0.11 -0.01z"/>
 </g>
</svg>
