<svg width="130" height="183" viewBox="0 0 130 183" fill="none" xmlns="http://www.w3.org/2000/svg">
<path opacity="0.35" fill-rule="evenodd" clip-rule="evenodd" d="M67.8281 29.8898C69.2721 32.9841 71.0049 35.6363 72.4489 38.5833C73.8929 41.5302 75.6256 44.3298 77.6472 46.8347C80.2464 50.2236 83.2788 53.0232 86.8888 55.2334C89.488 56.8542 92.2316 58.033 94.8308 59.5065C96.8524 60.6852 98.5851 62.306 100.174 64.2215C101.04 65.4003 101.762 66.5791 102.484 67.6105C103.495 69.084 104.794 70.4101 106.094 71.5889C108.549 73.7991 111.292 75.5672 114.325 76.746C118.079 78.2195 121.689 78.3668 125.443 78.9562V124.781C121.4 124.928 117.357 124.781 113.458 124.781C109.704 124.781 104.939 127.138 101.618 128.759C96.5635 130.969 91.5096 133.327 86.1668 134.358C83.5676 134.948 80.824 134.948 78.2248 135.095C74.6149 135.243 71.0049 135.243 67.3949 135.243C61.7633 135.243 56.2761 135.243 50.6446 135.095C42.5582 135.095 41.5474 123.455 51.3665 123.455C55.4097 123.455 59.4529 123.455 63.4961 123.455C65.9509 123.455 72.5932 124.634 72.7376 120.508C72.7376 117.266 68.8389 117.266 66.6729 117.414C65.5177 117.414 64.5069 117.561 63.3517 117.561C59.3085 117.561 55.2653 117.561 51.2221 117.561C48.0453 117.561 43.2802 118.298 40.9698 115.645C38.6594 112.993 38.9482 109.015 41.8362 106.952C44.291 105.184 50.3557 105.921 53.2437 105.921C56.1317 105.921 59.1641 105.921 62.0521 105.921C63.9293 105.921 69.5609 106.215 71.0049 105.626C72.5933 105.037 73.1709 102.974 72.4489 101.5C71.1493 98.9953 64.3625 99.8794 61.9077 99.8794C57.7201 99.8794 53.6769 99.8794 49.4893 99.8794C46.4569 99.8794 41.2586 100.616 38.8038 98.4059C36.2046 96.0484 36.2046 92.2174 38.6594 89.7125C41.1142 87.3549 46.1682 88.0917 49.345 88.0917C53.5325 88.0917 57.5757 88.0917 61.7633 88.0917C64.0737 88.0917 71.1493 88.9758 72.4489 86.7656C73.3153 85.4394 72.882 83.3766 71.438 82.4925C70.2829 81.7558 67.1061 82.0505 65.6621 82.0505C57.4313 82.0505 49.3449 82.3452 41.1142 82.0505C36.9266 81.9031 33.8942 78.2195 35.4826 73.9464C35.9158 73.0623 36.4934 72.1783 37.2154 71.5889C38.8038 70.4101 40.3922 70.4101 42.2694 70.4101C50.5001 70.4101 58.5865 70.4101 66.8173 70.4101C67.9725 70.2628 69.4164 70.1154 70.4272 69.2313C72.0156 67.7579 70.4273 64.9583 69.4165 63.4848C68.4057 62.0113 67.5393 60.5379 66.6729 59.0644C63.9293 54.202 58.7309 42.4143 60.1749 36.8151C61.0413 34.0155 64.5069 30.7739 67.8281 29.8898ZM129.487 166.922V173.7C122.989 176.942 115.913 179.446 108.26 181.067C98.7295 182.983 89.0548 183.278 79.38 182.099C65.6621 180.478 52.2329 175.763 40.8254 167.806C23.2086 155.576 11.3679 139.663 4.72552 119.034C-2.49445 96.0484 0.104749 69.526 11.3679 48.3081C21.3315 29.5951 36.349 16.0392 55.4097 7.49315C77.5028 -2.23172 103.35 -1.78968 125.443 7.93518C130.786 10.2927 128.331 16.0392 123.277 13.387C121.689 12.5029 119.956 11.9135 118.223 11.3242C106.527 7.05111 93.82 5.57764 81.4016 6.90376C59.3085 9.11396 39.237 20.3123 25.2303 37.9939C11.2235 55.5281 4.43673 78.8088 7.03592 101.353C9.63511 124.486 21.3314 145.409 39.3814 159.555C48.1897 166.48 58.4421 171.49 69.1277 174.289C79.2356 176.942 89.7768 177.678 100.174 176.352C111.148 175.026 120.678 171.932 129.487 166.922ZM40.5366 122.718C39.8146 125.223 38.6594 126.549 38.6594 129.349C38.515 136.863 44.291 141.431 51.3665 141.431C56.9981 141.431 62.6297 141.578 68.4057 141.578C76.6364 141.578 85.7336 141.431 93.6755 138.779C98.4407 137.158 103.062 134.948 107.682 132.885C111.003 131.559 112.159 130.969 115.769 130.969C119.09 130.969 122.411 130.969 125.732 130.969C125.877 132.001 126.31 133.18 127.176 133.769C127.754 134.064 128.62 134.211 129.631 134.211V69.8207H129.198C128.187 69.8207 127.321 69.9681 126.599 70.7048C125.732 71.5889 125.877 72.3256 125.588 73.0623C120.245 73.2097 115.047 71.2942 110.859 67.9052C107.249 64.9583 105.372 60.2432 101.762 57.0016C98.0075 53.7599 93.2423 52.4338 89.3436 49.4869C85.4448 46.6873 82.4124 43.2983 79.8132 39.1726C78.5136 37.1098 77.5028 34.8996 76.3476 32.6894C75.1924 30.4792 74.1816 28.269 73.0265 26.2062C72.4489 25.1747 71.7268 23.8486 70.5716 23.4066C69.4165 22.9645 67.9725 23.4066 66.8173 23.8486C64.5069 24.7327 62.4853 25.7641 60.6081 27.2376C56.1317 30.6265 54.1101 35.6363 54.5433 41.2355C54.8321 44.0351 55.5541 46.6873 56.4205 49.4869C57.7201 52.8759 59.0197 56.2648 60.6081 59.5065C61.4745 61.2746 62.3409 62.8954 63.2073 64.6636V64.8109H63.0629C61.3301 64.9583 59.5973 64.9583 57.8645 64.9583C55.5541 64.9583 53.2437 64.9583 50.9333 64.8109C47.4677 64.8109 44.0022 64.6636 40.3922 64.8109C34.0386 65.1056 29.2734 70.1154 29.2734 76.5986C29.2734 81.4611 31.0062 82.7872 34.0386 86.1762C33.461 87.3549 32.5946 88.3864 32.017 89.7125C31.0062 91.7753 30.8618 93.8382 31.295 96.0484C31.7282 98.848 33.7498 102.679 36.349 104.005C35.7714 105.773 34.4718 107.099 34.0386 109.015C32.5946 114.319 35.1938 121.097 40.5366 122.718Z" fill="#FEFEFE"/>
</svg>
