<svg width="142" height="182" viewBox="0 0 142 182" fill="none" xmlns="http://www.w3.org/2000/svg">
<g opacity="0.35" clip-path="url(#clip0_8_16)">
<path d="M142 175.006H96.5896C96.0662 175.006 95.5468 174.955 94.8149 174.92C94.8149 174.217 94.8149 173.584 94.8149 172.966C94.8149 164.352 94.8149 155.738 94.8149 147.124C94.8149 145.561 94.63 144.146 93.0953 143.33C91.6354 142.548 90.3722 143.146 89.1012 143.916C82.5218 147.917 75.8401 148.007 69.2489 144.068C65.3926 141.763 63.1024 138.352 63.4408 133.671C63.7792 128.99 66.6361 125.857 70.6852 123.903C76.8278 120.961 82.9389 121.199 88.8848 124.684C89.8663 125.303 90.9934 125.658 92.1548 125.712C93.8902 125.689 94.7992 124.227 94.7992 121.961C94.7992 113.29 94.7992 104.617 94.7992 95.9427C94.7992 95.3019 94.7992 94.6611 94.7992 93.864H118.142C117.713 96.8218 117.072 99.7015 116.918 102.608C116.583 108.03 118.264 113.385 121.64 117.659C126.996 124.575 135.102 126.579 141.996 123.782V116.71C139.976 118.173 137.489 118.854 135 118.628C130.238 118.304 127.129 115.483 125.162 111.462C122.191 105.367 122.407 99.2834 125.949 93.4069C126.039 93.2545 126.13 93.1021 126.232 92.9575C127.055 91.7854 127.46 90.5116 126.712 89.1519C125.925 87.714 124.56 87.4717 123.049 87.4757C115.383 87.4757 107.702 87.4757 100.052 87.4757H94.8897V64.0321C96.81 64.4736 98.628 65.0402 100.485 65.2942C106.84 66.1694 112.802 65.0519 118.13 61.3869C129.046 53.8693 128.947 39.5297 117.894 32.2036C111.362 27.8744 104.239 27.1242 96.7509 29.2536C96.1882 29.4138 95.6334 29.5818 94.929 29.7889V6.34538C95.5193 6.31803 96.141 6.26333 96.7627 6.26333H142.016V0H7.8465C7.45299 0.203177 7.05949 0.433705 6.61483 0.59781C2.80177 2.08257 0.787028 4.89579 0.393524 8.89292C0.326628 9.59622 0.358108 10.3073 0.358108 11.0185C0.358108 64.1259 0.358108 117.232 0.358108 170.337C0.358108 177.659 4.02557 181.277 11.4195 181.277H142V175.006ZM6.68959 85.4712C6.68959 60.5742 6.68959 35.6772 6.68959 10.7801C6.68959 7.162 7.56711 6.28678 11.1913 6.28678H88.4755V8.2404C88.4755 16.6176 88.4755 24.9947 88.4755 33.3719C88.4755 35.0833 88.2591 36.8884 90.0889 37.9277C91.9187 38.9671 93.3589 37.8769 94.8385 36.99C101.493 32.9929 110.752 33.7665 116.088 38.7522C121.636 43.9488 121.152 51.818 114.825 56.0535C108.391 60.3515 101.65 60.5468 94.8346 56.8115C94.3151 56.5263 93.8233 56.1903 93.296 55.9207C91.0136 54.7485 88.7667 55.9754 88.511 58.5112C88.4598 59.0386 88.4874 59.5739 88.4874 60.1014C88.4874 68.5385 88.4874 76.9756 88.4874 85.4126V87.417H64.8102C64.9873 86.7606 65.1447 86.1706 65.3099 85.5845C67.4152 78.2194 66.7069 71.2019 62.4374 64.7354C55.0316 53.5177 40.2162 53.4864 32.7553 64.6807C28.4268 71.1863 27.6988 78.2584 29.867 85.6861C30.0283 86.2371 30.1818 86.7841 30.3707 87.4405H6.68959V85.4712ZM88.4205 174.92C87.779 174.951 87.1573 175.002 86.5356 175.002H11.1323C7.59072 175.002 6.68566 174.103 6.68172 170.634C6.68172 145.677 6.68172 120.721 6.68172 95.7669V93.7742H8.71221C17.0309 93.7742 25.3496 93.7742 33.6683 93.7742C35.4902 93.7742 37.4656 94.1141 38.5753 92.1097C39.6377 90.1873 38.3077 88.7768 37.4656 87.2412C33.9909 80.9115 34.0814 74.5817 37.8276 68.4317C40.1571 64.6065 43.5688 62.3129 48.283 62.6294C52.9972 62.9459 56.1531 65.7552 58.1206 69.7914C61.0916 75.8828 60.8988 81.9703 57.3336 87.8468C57.2116 88.05 57.0818 88.2376 56.9637 88.4486C55.2441 91.3634 56.6096 93.7546 60.0488 93.7663C67.5962 93.7898 75.1397 93.7663 82.6871 93.7663H88.3339V117.218C86.4805 116.792 84.6664 116.221 82.8248 115.971C76.2061 115.077 70.0202 116.264 64.6095 120.308C54.2013 128.08 54.5751 141.884 65.3965 149.066C71.9287 153.399 79.0511 154.145 86.5395 152.02C87.1022 151.859 87.6571 151.691 88.4205 151.465V174.92Z" fill="white"/>
<path d="M142 181.297H11.4116C4.01768 181.297 0.350219 177.667 0.350219 170.356C0.350219 117.249 0.350219 64.1428 0.350219 11.038C0.350219 10.3308 0.318739 9.61576 0.385634 8.91636C0.787009 4.89579 2.80175 2.08257 6.61481 0.59781C7.03979 0.433705 7.43723 0.207085 7.84648 0H0C0 60.6667 0 121.333 0 182H142V181.297Z" fill="white"/>
</g>
<defs>
<clipPath id="clip0_8_16">
<rect width="142" height="182" fill="white"/>
</clipPath>
</defs>
</svg>
