<svg width="133" height="179" viewBox="0 0 133 179" fill="none" xmlns="http://www.w3.org/2000/svg">
<path opacity="0.35" fill-rule="evenodd" clip-rule="evenodd" d="M78.2954 90.1015L98.9445 110.288C70.209 113.088 45.8055 103.215 28.7664 79.3453L78.2954 90.1015ZM7.39527 20.554L70.6422 82.5869L24.29 72.5673C15.1928 56.9486 9.99445 38.6776 7.39527 20.554ZM33.2428 20.554L41.9067 46.7817L11.2941 16.723C18.514 17.4597 25.8784 18.6385 33.2428 20.554ZM102.699 106.457C84.9377 89.0701 68.0431 72.5673 50.1375 54.8857L39.4519 22.1748C57.7907 27.6266 75.263 37.2042 87.3925 52.5282C99.5221 68.1469 103.71 86.8599 102.699 106.457ZM74.9742 33.2258C55.1914 18.9332 29.7772 12.5973 6.09572 10.6818L0.75293 10.2397L1.33047 15.6916C5.08486 48.1078 15.9149 81.8501 42.6287 101.595C41.9067 107.046 41.9067 112.498 42.6287 117.95C46.6719 150.072 68.6206 178.362 102.266 178.362H102.843C113.962 178.362 123.926 175.268 132.301 169.963V162.743C124.214 168.785 114.251 172.468 102.843 172.468H102.554H102.266C71.653 172.468 52.1591 146.388 48.4047 117.361C47.9715 113.382 47.8271 109.551 48.1159 105.573C62.8446 114.561 79.3062 117.361 96.3453 116.182C99.9553 115.887 102.699 115.887 106.164 114.561L106.886 114.266L107.031 113.53C107.608 111.319 107.897 109.257 108.042 107.046C109.774 79.1979 101.255 54.7384 79.8838 37.0568C86.9593 27.4793 94.6125 18.4911 102.699 9.65036C112.662 20.7013 122.337 32.1944 130.857 44.2768C131.434 45.0135 132.012 45.8976 132.445 46.6343V36.3201C124.359 25.2691 115.406 14.6601 106.164 4.64058L102.554 0.80957L98.9445 4.64058C90.5693 13.7761 82.4829 23.2062 74.9742 33.2258Z" fill="#FEFEFE"/>
</svg>
