<svg width="107" height="186" viewBox="0 0 107 186" fill="none" xmlns="http://www.w3.org/2000/svg">
<path opacity="0.35" fill-rule="evenodd" clip-rule="evenodd" d="M106.815 131.938V141.368C100.751 149.325 89.343 160.966 81.1122 165.533L80.3902 165.975L79.6682 165.533C74.903 163.176 57.1419 147.115 53.9652 142.547C52.81 140.779 53.532 138.274 55.6979 137.979H55.8423H55.9867C56.7087 137.979 57.4307 138.422 58.0083 139.011C64.0731 145.641 70.8599 151.535 77.7911 157.135V127.813C77.7911 124.571 83.1338 124.571 83.1338 127.813V157.282C91.6534 150.651 99.7398 141.663 106.815 131.938ZM106.815 57.381V65.043L62.9179 110.573L49.4888 98.638L42.4132 106.005L63.4955 124.866L106.815 80.0723V87.587L63.6399 131.938L34.76 106.153L49.0556 91.418L62.6291 103.353L106.815 57.381ZM106.815 33.8055V39.11C105.949 39.11 105.083 38.8153 104.361 38.5206C96.1298 35.721 89.343 32.1847 82.845 26.8802V63.7169L82.7006 68.5793V68.7266C82.4118 69.7581 81.2566 70.4948 80.2458 70.4948C79.0906 70.4948 77.7911 69.4634 77.7911 68.2846L77.6466 63.5695L77.7911 26.4382C65.6615 34.5423 53.3876 41.7622 39.814 46.9194C35.1932 48.6875 30.428 49.5716 25.9517 51.4871C25.5185 62.9801 29.4173 78.4515 32.594 89.5025C33.0272 90.8286 33.1716 91.5654 32.8828 93.0388C32.594 94.2176 31.1501 94.807 30.1393 94.6596C28.5509 94.5123 27.9733 92.8915 27.5401 91.5654C24.3633 81.5458 19.0205 58.265 20.8977 48.3928L21.0421 47.5088L21.7641 47.0667C24.3633 45.8879 27.2513 45.1512 30.1393 44.2671C49.0556 38.668 63.3511 29.3851 79.8126 18.7762L80.8234 18.1868L81.8342 18.9235C89.343 24.9647 93.8194 28.6484 102.917 32.1847C104.216 32.7741 105.66 33.2161 106.96 33.6582L106.815 33.8055ZM1.98138 31.3006C21.6197 26.8802 41.4024 19.0709 59.3079 9.9354C64.2175 7.43051 68.8383 4.77828 73.4591 1.97869C74.0367 1.684 74.6143 1.38931 75.1919 0.947266H85.1554C85.733 1.24196 86.3106 1.53665 86.8882 1.97869C91.509 4.77828 96.2742 7.43051 101.039 9.9354C102.917 10.8195 104.649 11.8509 106.527 12.735V18.4815C103.35 17.008 100.317 15.3872 97.285 13.7664C93.3862 11.7036 89.4874 9.49336 85.733 7.13582C84.0002 6.10439 82.123 5.07297 80.1014 4.48358C78.2242 5.07297 76.2026 6.25174 74.6143 7.13582C70.7155 9.34602 66.9611 11.7036 63.0623 13.7664C50.7884 20.1023 38.37 25.9962 25.3741 30.4166C18.8761 32.6268 12.3781 34.2476 5.88016 36.1631C4.00297 65.7797 12.6669 99.3747 27.1069 125.013C38.6588 145.494 59.7411 168.922 80.3902 180.121C89.4874 175.258 98.5845 168.038 106.96 159.639V166.859C104.072 169.364 101.184 171.869 98.1514 174.227C93.675 177.763 86.3106 183.804 80.9678 185.72L80.3902 185.867L79.8126 185.72C74.6143 183.804 67.2499 177.763 62.6291 174.227C46.0232 161.408 33.0272 145.641 22.3417 127.518C5.88015 99.3747 -0.762206 65.3377 0.537389 32.7741V31.448L1.98138 31.3006Z" fill="#FEFEFE"/>
</svg>
