<?xml version="1.0" encoding="UTF-8"?>
<!DOCTYPE svg PUBLIC "-//W3C//DTD SVG 1.1//EN" "http://www.w3.org/Graphics/SVG/1.1/DTD/svg11.dtd">
<!-- Creator: CorelDRAW 2018 (64-Bit) -->
<svg xmlns="http://www.w3.org/2000/svg" xml:space="preserve" width="33.5727mm" height="33.5727mm" version="1.1" style="shape-rendering:geometricPrecision; text-rendering:geometricPrecision; image-rendering:optimizeQuality; fill-rule:evenodd; clip-rule:evenodd"
viewBox="0 0 445.33 445.33"
 xmlns:xlink="http://www.w3.org/1999/xlink">
 <defs>
  <style type="text/css">
   <![CDATA[
    .fil1 {fill:#FEFEFE}
    .fil0 {fill:#328AE3}
    .fil2 {fill:#328AE3;fill-rule:nonzero}
    .fil4 {fill:#328AE3;fill-rule:nonzero;fill-opacity:0.200000}
    .fil3 {fill:#328AE3;fill-rule:nonzero;fill-opacity:0.501961}
   ]]>
  </style>
 </defs>
 <g id="Слой_x0020_1">
  <metadata id="CorelCorpID_0Corel-Layer"/>
  <circle class="fil0" cx="222.66" cy="222.66" r="133.31"/>
  <path class="fil1" d="M249.43 219.1l-48.62 -28.49c-1.43,-0.84 -3.06,-0.85 -4.5,-0.03 -1.44,0.82 -2.26,2.23 -2.27,3.88l-0.36 56.35c-0.01,1.65 0.8,3.07 2.22,3.91 1.43,0.84 3.06,0.85 4.5,0.03l48.98 -27.86c1.44,-0.82 2.26,-2.23 2.27,-3.88 0.01,-1.65 -0.8,-3.07 -2.22,-3.91z"/>
  <path class="fil2" d="M222.66 57.82c45.52,0 86.74,18.45 116.56,48.28 29.83,29.83 48.28,71.04 48.28,116.56 0,45.52 -18.45,86.73 -48.28,116.56 -29.83,29.83 -71.04,48.28 -116.56,48.28 -45.52,0 -86.73,-18.45 -116.56,-48.28 -29.83,-29.83 -48.28,-71.04 -48.28,-116.56 0,-45.52 18.45,-86.74 48.28,-116.56 29.83,-29.83 71.04,-48.28 116.56,-48.28zm113.77 51.08c-29.11,-29.11 -69.34,-47.12 -113.77,-47.12 -44.43,0 -84.65,18.01 -113.77,47.12 -29.11,29.11 -47.13,69.34 -47.13,113.77 0,44.43 18.01,84.65 47.13,113.77 29.11,29.11 69.34,47.12 113.77,47.12 44.43,0 84.65,-18.01 113.77,-47.12 29.11,-29.11 47.12,-69.34 47.12,-113.77 0,-44.43 -18.01,-84.65 -47.12,-113.77z"/>
  <path class="fil3" d="M222.66 30.18c53.15,0 101.28,21.54 136.11,56.37 34.83,34.83 56.38,82.95 56.38,136.11 0,53.15 -21.54,101.28 -56.38,136.11 -34.83,34.83 -82.95,56.37 -136.11,56.37 -53.15,0 -101.28,-21.54 -136.11,-56.37 -34.83,-34.83 -56.38,-82.95 -56.38,-136.11 0,-53.15 21.55,-101.28 56.38,-136.11 34.83,-34.83 82.95,-56.37 136.11,-56.37zm133.31 59.17c-34.12,-34.12 -81.25,-55.22 -133.31,-55.22 -52.06,0 -99.19,21.1 -133.31,55.22 -34.12,34.12 -55.22,81.25 -55.22,133.31 0,52.06 21.1,99.19 55.22,133.31 34.11,34.12 81.25,55.22 133.31,55.22 52.06,0 99.19,-21.1 133.31,-55.22 34.12,-34.11 55.22,-81.25 55.22,-133.31 0,-52.06 -21.1,-99.19 -55.22,-133.31z"/>
  <path class="fil4" d="M222.66 0c61.49,0 117.16,24.92 157.45,65.22 40.29,40.29 65.22,95.96 65.22,157.45 0,61.49 -24.92,117.15 -65.22,157.45 -40.29,40.29 -95.96,65.22 -157.45,65.22 -61.49,0 -117.15,-24.92 -157.45,-65.22 -40.29,-40.29 -65.22,-95.96 -65.22,-157.45 0,-61.49 24.92,-117.16 65.22,-157.45 40.29,-40.29 95.96,-65.22 157.45,-65.22zm154.65 68.01c-39.58,-39.58 -94.26,-64.06 -154.65,-64.06 -60.39,0 -115.07,24.48 -154.65,64.06 -39.58,39.58 -64.06,94.26 -64.06,154.65 0,60.39 24.48,115.07 64.06,154.65 39.58,39.58 94.26,64.06 154.65,64.06 60.39,0 115.07,-24.48 154.65,-64.06 39.58,-39.58 64.06,-94.26 64.06,-154.65 0,-60.39 -24.48,-115.07 -64.06,-154.65z"/>
 </g>
</svg>
