<?xml version="1.0" encoding="UTF-8"?>
<!DOCTYPE svg PUBLIC "-//W3C//DTD SVG 1.1//EN" "http://www.w3.org/Graphics/SVG/1.1/DTD/svg11.dtd">
<!-- Creator: CorelDRAW 2018 (64-Bit) -->
<svg xmlns="http://www.w3.org/2000/svg" xml:space="preserve" width="131.222mm" height="130.858mm" version="1.1" style="shape-rendering:geometricPrecision; text-rendering:geometricPrecision; image-rendering:optimizeQuality; fill-rule:evenodd; clip-rule:evenodd"
viewBox="0 0 13344.44 13307.45"
 xmlns:xlink="http://www.w3.org/1999/xlink">
 <defs>
  <style type="text/css">
   <![CDATA[
    .fil0 {fill:#E3E8EC}
   ]]>
  </style>
 </defs>
 <g id="Слой_x0020_1">
  <metadata id="CorelCorpID_0Corel-Layer"/>
  <path class="fil0" d="M6672.23 0c-855.64,0 -1673.63,161.19 -2425.3,454.74 8.98,24.26 2.71,4.06 19.38,17.34 -2.01,85.09 25.85,137.56 50.62,219.94 9.95,33.06 18.96,67.69 27.68,95.88 6.52,21.06 11.14,35.64 19.68,53.75 22.21,47.02 6.8,17.08 23.15,37.55 -4.61,62.48 50.48,257.26 83.82,301.91 19.09,108.54 191.59,720.38 239.06,769.03 0.74,105.6 161.03,585.75 202.33,718.84 48.03,154.74 591.75,2023.05 646.71,2092.98 -5.34,92.03 158.36,596.07 197.43,692.45 26.81,113.86 56.54,291.77 122.54,369.24 -3.39,105.47 383.58,1322.69 447.62,1520.09l211.96 -1535.96 51.14 -356.1c21.64,-106.43 53.6,-233.35 40.71,-337.55 56.51,-82.73 60.81,-278.23 73.93,-388.71 22.09,-77.13 52.04,-200.76 34.55,-276.71 43.42,-65.97 145.32,-692.36 158.04,-765.13 21.53,-88.7 58.17,-211.2 51.98,-311.21 50.5,-64.16 82.66,-302.72 100.29,-402.03 186.46,-642.72 280.13,-1218.44 572.65,-1784.29 202.72,-392.15 486.55,-744.04 943.27,-913.11 -600.24,-177.29 -1235.53,-272.93 -1893.22,-272.93zm-4072.72 1387.36c-1580.91,1220.13 -2599.5,3133.42 -2599.5,5284.87 0,3446.94 2613.92,6283.2 5967.63,6635.22l-45.49 -87.7c4.63,-63.04 -45.05,-231.08 -70.97,-296.28 -62.82,-428.92 -110.95,-767.32 -121.98,-1224.33 -10.58,-438.65 26.87,-863.54 60.08,-1295.3l38.8 -331.01 48.68 -396.53c16.63,-79.97 45.9,-200.32 28.78,-276.08 11.59,-19.03 6.26,-2.92 19.25,-43.82l63.79 -354.52c18.64,-73.61 35.07,-172.05 54.99,-255.64 18.67,-78.3 73.79,-188.74 12.14,-223.53 -19.35,-55.48 -38.17,-92.61 -60.76,-139.87 -9.29,-19.47 -16.2,-37.64 -27.98,-59.91 -26,-49.37 -10.93,-32.7 -47.11,-65.74 -3.31,-50.81 -110.29,-281 -145.36,-314.73l-2561.45 -5275.64c-21.47,-76.85 2.11,-9.72 -20.4,-53.72 -1.89,-3.72 -8.73,-4.06 -10.27,-11.99 -1.46,-7.65 -7.6,-6.73 -11.33,-10.17 -2.22,-55.36 -120.59,-287.49 -151.2,-322.99l-156.68 -336.1c-18.63,-25.95 -10.67,-14.68 -29.04,-29.42 -0.45,-54.24 -86.99,-212.47 -125.86,-293.16l-53.33 -78.28c-1.09,-15.6 -23.18,-70.77 -55.42,-143.6zm5450.15 11814.4c3024.03,-634.77 5294.78,-3316.84 5294.78,-6529.53 0,-2082.75 -954.4,-3942.51 -2449.62,-5165.97 23.36,66.57 45.45,135.34 66.65,206.5 47.05,157.8 78.77,307.75 108.9,478.39 18.01,102.03 41.5,449.03 79.42,507.2 -14.4,79.88 -0.79,172.09 6.68,252.55l13.33 372.55 0.16 166.37 -167.12 5.33 -312.34 -0.89 -51.15 -511.98c-89.33,-796.13 -450.5,-1422.84 -1323.83,-1358.03 -418.1,31.02 -669.15,255.27 -847.9,478.21 -118.24,147.44 -400.56,650.59 -449.27,876.55 -33.03,42.61 -112.19,254 -114.51,330.13 -64.77,68.77 -201.33,591.59 -227.61,726.5l-90.64 341.49c-75.58,400.23 -171.08,810.82 -245.01,1227.29 -75.96,427.95 -157.66,842.18 -232.73,1268.06l-32.54 174.67 -97.02 552.79c-23.65,77.43 -46.06,182.65 -35.11,265.07 -61.55,91.16 -67.08,312.3 -79.18,439.43l-39.36 342.68c39.94,101.39 351.89,695.2 406.49,739.58 7.57,106.02 102.48,236.47 154.37,339.06 50.71,100.32 109.25,270.48 165.71,338.32l300.89 721.42c-0.83,72.96 58.19,265.11 96.44,328.16 9.21,49.33 80.75,364.5 113.05,408.48 -9.55,88.26 22.37,215.5 43.42,305.47 45.13,423.65 42.86,669.74 2.01,1091.21l-57.39 282.95z"/>
 </g>
</svg>
