<svg width="103" height="132" viewBox="0 0 103 132" fill="none" xmlns="http://www.w3.org/2000/svg">
<path d="M102.189 126.586H69.4637C69.0865 126.586 68.7122 126.55 68.1847 126.524C68.1847 126.016 68.1847 125.558 68.1847 125.111C68.1847 118.881 68.1847 112.65 68.1847 106.419C68.1847 105.289 68.0514 104.266 66.9455 103.675C65.8934 103.11 64.9831 103.542 64.0671 104.099C59.3256 106.993 54.5104 107.058 49.7604 104.209C46.9813 102.542 45.3308 100.075 45.5747 96.6888C45.8186 93.3031 47.8774 91.0366 50.7955 89.6235C55.2222 87.4955 59.6262 87.6678 63.9111 90.1888C64.6185 90.6364 65.4307 90.8926 66.2677 90.932C67.5183 90.9151 68.1734 89.8581 68.1734 88.219C68.1734 81.9468 68.1734 75.6738 68.1734 69.3998C68.1734 68.9363 68.1734 68.4728 68.1734 67.8963H84.9954C84.6863 70.0357 84.2241 72.1185 84.1135 74.2211C83.8723 78.1427 85.0831 82.0162 87.5165 85.1074C91.376 90.1096 97.2178 91.5594 102.186 89.5359V84.4206C100.731 85.4786 98.9382 85.9719 97.1441 85.8083C93.7127 85.5737 91.4724 83.5332 90.0545 80.6251C87.9135 76.2164 88.0695 71.8161 90.6217 67.5656C90.6869 67.4554 90.7521 67.3452 90.8259 67.2406C91.4186 66.3928 91.7106 65.4715 91.1718 64.488C90.6047 63.448 89.6207 63.2727 88.5317 63.2756C83.0075 63.2756 77.472 63.2756 71.9592 63.2756H68.2386V46.3188C69.6225 46.6382 70.9326 47.048 72.2711 47.2317C76.851 47.8647 81.1472 47.0564 84.9869 44.4055C92.8535 38.9681 92.7826 28.5962 84.8168 23.2972C80.1093 20.1658 74.9765 19.6232 69.5799 21.1635C69.1744 21.2793 68.7746 21.4009 68.2669 21.5507V4.5939C68.6923 4.57412 69.1404 4.53455 69.5884 4.53455H102.2V0.00427246H5.51029C5.22671 0.151231 4.94313 0.317972 4.62268 0.43667C1.87477 1.5106 0.422836 3.54541 0.139254 6.43653C0.091045 6.94524 0.113732 7.45959 0.113732 7.97395C0.113732 46.3866 0.113732 84.7984 0.113732 123.209C0.113732 128.505 2.75671 131.122 8.08522 131.122H102.189V126.586ZM4.67656 61.8258C4.67656 43.8177 4.67656 25.8096 4.67656 7.80155C4.67656 5.18456 5.30895 4.55151 7.92074 4.55151H63.6162V5.96457C63.6162 12.0238 63.6162 18.083 63.6162 24.1422C63.6162 25.3801 63.4602 26.6857 64.7789 27.4375C66.0975 28.1892 67.1355 27.4007 68.2017 26.7592C72.9971 23.8681 79.6698 24.4276 83.5151 28.0338C87.5136 31.7925 87.1648 37.4843 82.6048 40.5479C77.9683 43.6566 73.1105 43.7979 68.1989 41.0961C67.8246 40.8898 67.4701 40.6468 67.0901 40.4518C65.4453 39.6039 63.8261 40.4913 63.6417 42.3255C63.6049 42.707 63.6247 43.0942 63.6247 43.4757C63.6247 49.5783 63.6247 55.6808 63.6247 61.7834V63.2332H46.5616C46.6892 62.7584 46.8026 62.3316 46.9217 61.9077C48.4389 56.5805 47.9285 51.5048 44.8516 46.8275C39.5146 38.7137 28.8377 38.6911 23.461 46.7879C20.3416 51.4934 19.817 56.6087 21.3795 61.9812C21.4958 62.3797 21.6064 62.7753 21.7425 63.2501H4.67656V61.8258ZM63.5765 126.524C63.1143 126.547 62.6662 126.584 62.2181 126.584H7.8782C5.32597 126.584 4.67373 125.934 4.67089 123.424C4.67089 105.373 4.67089 87.3221 4.67089 69.2726V67.8313H6.13417C12.1291 67.8313 18.124 67.8313 24.1189 67.8313C25.4319 67.8313 26.8555 68.0772 27.6552 66.6273C28.4209 65.2369 27.4624 64.2167 26.8555 63.106C24.3515 58.5277 24.4167 53.9494 27.1164 49.501C28.7952 46.7343 31.2538 45.0753 34.6512 45.3042C38.0485 45.5331 40.3228 47.5651 41.7407 50.4845C43.8817 54.8904 43.7428 59.2936 41.1735 63.544C41.0856 63.691 40.992 63.8267 40.907 63.9793C39.6677 66.0876 40.6518 67.8171 43.1303 67.8256C48.5694 67.8426 54.0056 67.8256 59.4447 67.8256H63.5141V84.788C62.1784 84.48 60.8711 84.0674 59.544 83.8865C54.7741 83.2393 50.3162 84.0985 46.417 87.0235C38.9162 92.6447 39.1856 102.629 46.9841 107.824C51.6916 110.958 56.8244 111.498 62.221 109.96C62.6265 109.844 63.0264 109.723 63.5765 109.559V126.524Z" fill="white" fill-opacity="0.35"/>
</svg>
