<svg width="78" height="134" viewBox="0 0 78 134" fill="none" xmlns="http://www.w3.org/2000/svg">
<path opacity="0.35" fill-rule="evenodd" clip-rule="evenodd" d="M77.4963 94.301V101.09C73.1108 106.817 64.8619 115.197 58.9101 118.485L58.3881 118.804L57.866 118.485C54.4202 116.788 41.577 105.226 39.2799 101.938C38.4446 100.665 38.9666 98.8621 40.5329 98.65H40.6373H40.7417C41.2638 98.65 41.7859 98.9682 42.2035 99.3925C46.589 104.166 51.4966 108.409 56.5086 112.439V91.331C56.5086 88.9975 60.372 88.9975 60.372 91.331V112.545C66.5325 107.772 72.3799 101.302 77.4963 94.301ZM77.4963 40.6288V46.1445L45.7537 78.9206L36.043 70.3288L30.9266 75.6324L46.1714 89.2096L77.4963 56.9638V62.3735L46.2758 94.301L25.3925 75.7385L35.7297 65.1313L45.5449 73.7231L77.4963 40.6288ZM77.4963 23.6573V27.4759C76.8698 27.4759 76.2433 27.2638 75.7212 27.0516C69.7694 25.0363 64.8619 22.4905 60.1631 18.672V45.1899L60.0587 48.6902V48.7963C59.8499 49.5388 59.0146 50.0692 58.2837 50.0692C57.4483 50.0692 56.5086 49.3267 56.5086 48.4781L56.4042 45.0838L56.5086 18.3537C47.7376 24.1877 38.8622 29.3852 29.0471 33.0977C25.7058 34.3706 22.26 35.007 19.0231 36.3859C18.7099 44.6595 21.5291 55.797 23.8263 63.7524C24.1395 64.7071 24.2439 65.2374 24.0351 66.2981C23.8263 67.1467 22.7821 67.571 22.0512 67.4649C20.9026 67.3588 20.4849 66.1921 20.1717 65.2374C17.8745 58.0245 14.0111 41.2652 15.3685 34.1584L15.473 33.522L15.995 33.2038C17.8745 32.3552 19.9629 31.8248 22.0512 31.1884C35.7297 27.1577 46.0669 20.4752 57.9704 12.838L58.7013 12.4137L59.4322 12.9441C64.8619 17.293 68.0988 19.9448 74.677 22.4905C75.6168 22.9148 76.6609 23.233 77.6007 23.5513L77.4963 23.6573ZM1.69001 21.8541C15.8906 18.672 30.1957 13.0502 43.1433 6.47373C46.6934 4.67051 50.0348 2.76122 53.3761 0.745859C53.7938 0.533716 54.2114 0.321572 54.6291 0.00335693H61.8338C62.2515 0.2155 62.6691 0.427644 63.0868 0.745859C66.4281 2.76122 69.8739 4.67051 73.3196 6.47373C74.677 7.11016 75.93 7.85266 77.2874 8.48909V12.6259C74.9903 11.5652 72.7975 10.3984 70.6048 9.23159C67.7855 7.74659 64.9663 6.15551 62.2515 4.45837C60.9985 3.71586 59.6411 2.97336 58.1792 2.54908C56.8218 2.97336 55.36 3.82194 54.2114 4.45837C51.3922 6.04944 48.6773 7.74659 45.8581 9.23159C36.9827 13.7927 28.0029 18.0355 18.6055 21.2177C13.9067 22.8088 9.20798 23.9755 4.50925 25.3545C3.15184 46.6749 9.41681 70.8592 19.8584 89.3157C28.2117 104.06 43.4565 120.925 58.3881 128.986C64.9663 125.486 71.5445 120.289 77.6007 114.242V119.44C75.5123 121.243 73.424 123.046 71.2313 124.744C67.9944 127.289 62.6691 131.638 58.8057 133.017L58.3881 133.123L57.9704 133.017C54.2114 131.638 48.8862 127.289 45.5449 124.744C33.537 115.515 24.1395 104.166 16.4127 91.1189C4.50924 70.8592 -0.293897 46.3567 0.64585 22.9148V21.9602L1.69001 21.8541Z" fill="#FEFEFE"/>
</svg>
