<svg width="96" height="129" viewBox="0 0 96 129" fill="none" xmlns="http://www.w3.org/2000/svg">
<path opacity="0.35" fill-rule="evenodd" clip-rule="evenodd" d="M56.901 64.4377L71.8103 79.0036C51.0624 81.0236 33.4423 73.9002 21.1396 56.6764L56.901 64.4377ZM5.70905 14.2548L51.3752 59.0154L17.9075 51.7857C11.3391 40.5158 7.58574 27.3321 5.70905 14.2548ZM24.3717 14.2548L30.6273 33.1797L8.52409 11.4905C13.7371 12.0221 19.0544 12.8726 24.3717 14.2548ZM74.521 76.2392C61.697 63.6935 49.4985 51.7857 36.5702 39.0273L28.8549 15.4243C42.096 19.3581 54.7115 26.2689 63.4694 37.3262C72.2273 48.5961 75.2508 62.0987 74.521 76.2392ZM54.503 23.3983C40.2193 13.0853 21.8695 8.51352 4.77074 7.13136L0.913086 6.8124L1.33009 10.7462C4.04086 34.1366 11.8604 58.4838 31.1486 72.7307C30.6273 76.6645 30.6273 80.5983 31.1486 84.5322C34.0679 107.71 49.9155 128.123 74.2082 128.123H74.6253C82.6534 128.123 89.8473 125.891 95.8944 122.063V116.853C90.0558 121.213 82.8619 123.871 74.6253 123.871H74.4168H74.2082C52.105 123.871 38.0298 105.052 35.3191 84.1069C35.0063 81.2363 34.902 78.472 35.1105 75.6013C45.7451 82.0868 57.6308 84.1069 69.9336 83.2563C72.5401 83.0437 74.521 83.0437 77.0233 82.0868L77.5446 81.8742L77.6488 81.3426C78.0659 79.7478 78.2744 78.2593 78.3787 76.6645C79.6298 56.5701 73.4784 38.921 58.0479 26.1626C63.1566 19.2518 68.6824 12.7663 74.521 6.38712C81.715 14.3611 88.7004 22.6541 94.8518 31.3723C95.2689 31.9039 95.6859 32.5418 95.9987 33.0734V25.631C90.1601 17.657 83.696 10.002 77.0233 2.77225L74.4168 0.00793457L71.8103 2.77225C65.7631 9.36408 59.9245 16.1685 54.503 23.3983Z" fill="#FEFEFE"/>
</svg>
