<svg width="94" height="133" viewBox="0 0 94 133" fill="none" xmlns="http://www.w3.org/2000/svg">
<path opacity="0.35" fill-rule="evenodd" clip-rule="evenodd" d="M49.1863 21.355C50.2287 23.5966 51.4796 25.5179 52.522 27.6527C53.5644 29.7875 54.8152 31.8156 56.2746 33.6301C58.1509 36.0852 60.3399 38.1132 62.9459 39.7143C64.8222 40.8885 66.8028 41.7424 68.6791 42.8098C70.1384 43.6637 71.3892 44.8378 72.5359 46.2255C73.1613 47.0794 73.6825 47.9333 74.2037 48.6805C74.9334 49.7479 75.8715 50.7085 76.8097 51.5625C78.5817 53.1636 80.5623 54.4445 82.7513 55.2984C85.4615 56.3658 88.0675 56.4725 90.7777 56.8995V90.0956C87.859 90.2024 84.9403 90.0956 82.1259 90.0956C79.4157 90.0956 75.9758 91.8035 73.5783 92.9776C69.9299 94.5787 66.2816 96.2866 62.4247 97.0337C60.5484 97.4607 58.5679 97.4607 56.6916 97.5675C54.0856 97.6742 51.4796 97.6742 48.8736 97.6742C44.8083 97.6742 40.8472 97.6742 36.7819 97.5675C30.9445 97.5675 30.2148 89.135 37.3031 89.135C40.2218 89.135 43.1405 89.135 46.0592 89.135C47.8312 89.135 52.6262 89.9889 52.7305 87.0002C52.7305 84.6519 49.916 84.6519 48.3524 84.7586C47.5185 84.7586 46.7888 84.8654 45.9549 84.8654C43.0362 84.8654 40.1175 84.8654 37.1989 84.8654C34.9056 84.8654 31.4657 85.3991 29.7979 83.4778C28.1301 81.5564 28.3385 78.6745 30.4233 77.1801C32.1954 75.8992 36.5734 76.4329 38.6582 76.4329C40.743 76.4329 42.932 76.4329 45.0168 76.4329C46.3719 76.4329 50.4372 76.6464 51.4796 76.2194C52.6262 75.7925 53.0432 74.2981 52.522 73.2307C51.5839 71.4161 46.6846 72.0566 44.9125 72.0566C41.8896 72.0566 38.9709 72.0566 35.948 72.0566C33.759 72.0566 30.0064 72.5903 28.2343 70.9892C26.358 69.2813 26.358 66.5061 28.13 64.6915C29.9021 62.9837 33.5505 63.5174 35.8438 63.5174C38.8667 63.5174 41.7854 63.5174 44.8083 63.5174C46.4761 63.5174 51.5839 64.1578 52.522 62.5567C53.1474 61.596 52.8347 60.1017 51.7923 59.4612C50.9584 58.9275 48.6651 59.141 47.6228 59.141C41.6811 59.141 35.8437 59.3545 29.9021 59.141C26.8792 59.0343 24.6902 56.3658 25.8368 53.2703C26.1495 52.6299 26.5665 51.9894 27.0877 51.5625C28.2343 50.7085 29.3809 50.7086 30.736 50.7086C36.6776 50.7086 42.515 50.7086 48.4567 50.7086C49.2906 50.6018 50.333 50.4951 51.0626 49.8546C52.2093 48.7872 51.0627 46.7592 50.333 45.6918C49.6033 44.6244 48.9779 43.557 48.3524 42.4896C46.3719 38.9671 42.6193 30.4279 43.6617 26.3718C44.2871 24.3437 46.7888 21.9955 49.1863 21.355ZM93.6964 120.623V125.533C89.0057 127.882 83.8979 129.696 78.3733 130.87C71.4935 132.258 64.5095 132.471 57.5255 131.618C47.6228 130.443 37.9285 127.028 29.6936 121.264C16.9765 112.404 8.42887 100.876 3.63388 85.9328C-1.57807 69.2813 0.298235 50.0681 8.42888 34.6975C15.6214 21.1415 26.4622 11.3215 40.2218 5.13053C56.1704 -1.91432 74.8291 -1.5941 90.7777 5.45075C94.6345 7.15859 92.8625 11.3215 89.2141 9.40013C88.0675 8.75969 86.8166 8.33273 85.5658 7.90577C77.1224 4.81031 67.9494 3.7429 58.9848 4.70357C43.0362 6.30467 28.547 14.4169 18.4358 27.2257C8.32465 39.9278 3.42541 56.7927 5.30171 73.124C7.17801 89.8822 15.6214 105.039 28.6512 115.286C35.0098 120.303 42.4108 123.932 50.1245 125.96C57.4212 127.882 65.0307 128.415 72.5359 127.455C80.458 126.494 87.3378 124.252 93.6964 120.623ZM29.4852 88.6013C28.964 90.4159 28.13 91.3765 28.13 93.4046C28.0258 98.8483 32.1954 102.157 37.3031 102.157C41.3684 102.157 45.4337 102.264 49.6033 102.264C55.5449 102.264 62.112 102.157 67.8451 100.236C71.285 99.0618 74.6207 97.4607 77.9563 95.9663C80.3538 95.0057 81.1877 94.5787 83.7937 94.5787C86.1912 94.5787 88.5887 94.5787 90.9862 94.5787C91.0904 95.3259 91.4032 96.1798 92.0286 96.6068C92.4455 96.8203 93.071 96.927 93.8006 96.927V50.2816H93.4879C92.7582 50.2816 92.1328 50.3883 91.6116 50.922C90.9862 51.5625 91.0904 52.0962 90.882 52.6299C87.0251 52.7366 83.2725 51.349 80.2496 48.894C77.6436 46.7592 76.2885 43.3435 73.6825 40.9952C70.9723 38.6469 67.5324 37.6863 64.7179 35.5515C61.9035 33.5234 59.7145 31.0684 57.8382 28.0796C56.9 26.5853 56.1704 24.9842 55.3364 23.3831C54.5025 21.782 53.7729 20.1809 52.939 18.6865C52.522 17.9393 52.0008 16.9787 51.1669 16.6585C50.333 16.3382 49.2906 16.6585 48.4567 16.9787C46.7888 17.6191 45.3295 18.3663 43.9744 19.4337C40.743 21.8887 39.2836 25.5179 39.5963 29.574C39.8048 31.6021 40.326 33.5234 40.9515 35.5515C41.8896 38.0065 42.8278 40.4615 43.9744 42.8098C44.5998 44.0907 45.2252 45.2648 45.8507 46.5457V46.6524H45.7465C44.4956 46.7592 43.2447 46.7592 41.9939 46.7592C40.326 46.7592 38.6582 46.7592 36.9904 46.6524C34.4886 46.6524 31.9869 46.5457 29.3809 46.6524C24.7944 46.8659 21.3545 50.4951 21.3545 55.1916C21.3545 58.7141 22.6054 59.6747 24.7944 62.1297C24.3775 62.9837 23.752 63.7308 23.3351 64.6915C22.6054 66.1859 22.5012 67.6802 22.8139 69.2813C23.1266 71.3094 24.5859 74.0846 26.4622 75.0453C26.0453 76.3262 25.1071 77.2868 24.7944 78.6745C23.752 82.5171 25.6283 87.4271 29.4852 88.6013Z" fill="#FEFEFE"/>
</svg>
