<?xml version="1.0" encoding="UTF-8"?>
<!DOCTYPE svg PUBLIC "-//W3C//DTD SVG 1.1//EN" "http://www.w3.org/Graphics/SVG/1.1/DTD/svg11.dtd">
<!-- Creator: CorelDRAW 2018 (64-Bit) -->
<svg xmlns="http://www.w3.org/2000/svg" xml:space="preserve" width="134.236mm" height="129.262mm" version="1.1" style="shape-rendering:geometricPrecision; text-rendering:geometricPrecision; image-rendering:optimizeQuality; fill-rule:evenodd; clip-rule:evenodd"
viewBox="0 0 5014.32 4828.54"
 xmlns:xlink="http://www.w3.org/1999/xlink">
 <defs>
  <style type="text/css">
   <![CDATA[
    .fil0 {fill:#E3E8EC}
   ]]>
  </style>
 </defs>
 <g id="Слой_x0020_1">
  <metadata id="CorelCorpID_0Corel-Layer"/>
  <path class="fil0" d="M2719.56 2008.71c279.56,399.12 774.85,679.85 733.29,1615.39 -64.02,1441.47 -1322.11,1506.94 -1723.83,631.51 -282.76,-616.18 -283.17,-2126.77 990.54,-2246.9zm1098.14 -1723.97c717.83,441.03 1196.62,1233.38 1196.62,2137.64 0,1070.31 -670.77,1983.81 -1614.79,2343.5 705.78,-539.94 972.24,-1606.75 478.22,-2364.61 -400.49,-614.41 -1158.29,-965.32 -1767.25,-1381.56 -1017.1,-695.24 -214.85,-1122.95 384.94,-998.12 449.56,93.55 667.13,608.6 902.22,690.58 255.06,88.96 460.38,-113.54 436.1,-351.69 -2.64,-25.96 -8.18,-51.17 -16.06,-75.73zm-2565.84 4308.29c-748.42,-433.75 -1251.86,-1243.38 -1251.86,-2170.65 0,-994.89 579.48,-1854.43 1419.34,-2259.5 -67.12,108.32 -97.99,238.64 -79.11,393.02 23.46,191.74 189.38,423.46 277.21,516.2l641.59 535.06c84.52,69.75 143.38,80.76 205.13,192.11 -366.06,190.96 -1404.67,293.86 -1566.81,1568.13 -60.95,478.95 83.53,911.54 354.51,1225.64z"/>
 </g>
</svg>
