<?xml version="1.0" encoding="UTF-8"?>
<!DOCTYPE svg PUBLIC "-//W3C//DTD SVG 1.1//EN" "http://www.w3.org/Graphics/SVG/1.1/DTD/svg11.dtd">
<!-- Creator: CorelDRAW 2018 (64-Bit) -->
<svg xmlns="http://www.w3.org/2000/svg" xml:space="preserve" width="11.8969mm" height="11.8975mm" version="1.1" style="shape-rendering:geometricPrecision; text-rendering:geometricPrecision; image-rendering:optimizeQuality; fill-rule:evenodd; clip-rule:evenodd"
viewBox="0 0 46.02 46.02"
 xmlns:xlink="http://www.w3.org/1999/xlink">
 <defs>
  <style type="text/css">
   <![CDATA[
    .fil0 {fill:#8D8D93}
   ]]>
  </style>
 </defs>
 <g id="Слой_x0020_1">
  <metadata id="CorelCorpID_0Corel-Layer"/>
  <path class="fil0" d="M45.96 24.56c0.4,-5.55 -1.34,-11.18 -4.61,-15.45 -3.93,-5.14 -9.86,-8.57 -16.71,-9.06 -13.23,-0.94 -23.76,9.2 -24.59,21.35 -0.91,13.27 9.22,23.73 21.41,24.56 7.41,0.51 13.11,-2.49 17.01,-5.9 0.24,-0.21 0.53,-0.53 0.75,-0.75 0.96,-0.96 1.09,-1.07 2.01,-2.27 2.7,-3.49 4.38,-7.72 4.72,-12.48zm-13.7 -8.27c0.06,-0.41 1.58,-1.66 1.66,-2.37 -0.18,-0.01 -0.1,-0.04 -0.29,0.01l-1.79 0.74c-0.66,0.34 -0.91,0.28 -1.36,-0.11 -2,-1.34 -3.44,-1.7 -5.75,-0.39 -2.04,1.15 -2.14,3.18 -2.17,5.17 -2.74,-0.03 -8.04,-2.67 -10.08,-4.95 -1.06,2.15 -0.52,4.48 1.33,6.03 0.02,0.01 0.06,0.06 0.08,0.08l0.12 0.18c-0.72,0.06 -1.57,-0.26 -2.09,-0.42 -0.05,2.55 1.72,3.45 3.55,4.63 -0.62,0.47 -1.28,0.37 -1.64,0.28 0.05,1.6 2.62,3.12 4.2,3.19 -1.11,1.66 -5.53,1.89 -6.74,2.15 0.21,0.22 0.56,0.35 0.92,0.56 1.25,0.76 2.79,1.09 4.2,1.36 3.66,0.7 7.62,-0.37 10.51,-2.69 4.25,-3.43 5.07,-7.45 5.37,-11.53l1.69 -1.65c0.01,-0.01 0.02,-0.04 0.04,-0.05l0.12 -0.14c0.01,-0.01 0.03,-0.03 0.04,-0.04 0.01,-0.01 0.03,-0.03 0.04,-0.04 0.16,-0.19 0.13,-0.14 0.17,-0.44 -0.78,0.21 -1.27,0.42 -2.12,0.45z"/>
 </g>
</svg>
