<?xml version="1.0" encoding="UTF-8"?>
<!DOCTYPE svg PUBLIC "-//W3C//DTD SVG 1.1//EN" "http://www.w3.org/Graphics/SVG/1.1/DTD/svg11.dtd">
<!-- Creator: CorelDRAW 2018 (64-Bit) -->
<svg xmlns="http://www.w3.org/2000/svg" xml:space="preserve" width="11.8955mm" height="11.8946mm" version="1.1" style="shape-rendering:geometricPrecision; text-rendering:geometricPrecision; image-rendering:optimizeQuality; fill-rule:evenodd; clip-rule:evenodd"
viewBox="0 0 42.15 42.15"
 xmlns:xlink="http://www.w3.org/1999/xlink">
 <defs>
  <style type="text/css">
   <![CDATA[
    .fil0 {fill:#8D8D93}
   ]]>
  </style>
 </defs>
 <g id="Слой_x0020_1">
  <metadata id="CorelCorpID_0Corel-Layer"/>
  <path class="fil0" d="M25.34 21.85l-3 0.01 -0 9.01c-0.06,0.26 -0.38,0.31 -0.61,0.31l-3 -0c-0.11,-0.12 -0.01,0.12 -0.13,-0.23 -0.22,-0.06 -0.14,-0.04 -0.15,-0.38 -0.05,-2.65 0.01,-6.02 0.01,-8.7l-3.07 -0.02 -0 -3.66 3.05 -0c0.03,-1.65 0.02,-3.06 0.41,-4.91 0.34,-1.57 1.01,-2.22 3.04,-2.43 0.57,-0.1 3.45,-0.02 4.12,0.02l0.01 3.2c-0.99,0.02 -3.02,-0.29 -3.57,0.79 -0.24,0.47 -0.18,2.87 -0.11,3.33l3.45 0.02 -0.44 3.65zm-4.23 20.3c11.63,-0.03 21.07,-9.45 21.05,-21.11 -0.02,-11.67 -9.45,-21.03 -21.12,-21.04 -11.63,-0 -21.07,9.49 -21.03,21.11 0.04,11.57 9.43,21.06 21.03,21.04l0.08 0z"/>
 </g>
</svg>
