<?xml version="1.0" encoding="UTF-8"?>
<!DOCTYPE svg PUBLIC "-//W3C//DTD SVG 1.1//EN" "http://www.w3.org/Graphics/SVG/1.1/DTD/svg11.dtd">
<!-- Creator: CorelDRAW 2018 (64-Bit) -->
<svg xmlns="http://www.w3.org/2000/svg" xml:space="preserve" width="11.8959mm" height="11.8964mm" version="1.1" style="shape-rendering:geometricPrecision; text-rendering:geometricPrecision; image-rendering:optimizeQuality; fill-rule:evenodd; clip-rule:evenodd"
viewBox="0 0 50.64 50.65"
 xmlns:xlink="http://www.w3.org/1999/xlink">
 <defs>
  <style type="text/css">
   <![CDATA[
    .fil0 {fill:#8D8D93}
   ]]>
  </style>
 </defs>
 <g id="Слой_x0020_1">
  <metadata id="CorelCorpID_0Corel-Layer"/>
  <path class="fil0" d="M50.59 26.85c0.89,-14.42 -10.25,-25.93 -23.61,-26.79 -14.51,-0.93 -26.1,10.22 -26.93,23.66 -0.89,14.55 10.27,26.08 23.78,26.89 14.48,0.86 25.93,-10.31 26.76,-23.75zm-17.87 -3.27l1.92 -0 0 9.82c0.02,1.3 -0.52,1.24 -1.9,1.24l-11.94 -0.01c-0.87,0 -2.04,0.05 -3.09,0.03 -1.92,-0.04 -1.75,-0.52 -1.78,-2.46l-0 -8.6 1.74 -0.02c-0.13,0.55 -0.19,1.13 -0.19,1.72 0,4.26 3.45,7.72 7.71,7.72 4.26,0 7.72,-3.45 7.72,-7.72 0,-0.59 -0.07,-1.16 -0.19,-1.72zm-2.38 -8.49l3.93 0c0.34,0 0.62,0.28 0.62,0.62l0 3.96c0,0.34 -0.28,0.62 -0.62,0.62l-3.93 0c-0.34,0 -0.62,-0.28 -0.62,-0.62l0 -3.96c0,-0.34 0.28,-0.62 0.62,-0.62zm-5.14 5.52c2.59,0 4.69,2.1 4.69,4.69 0,2.59 -2.1,4.69 -4.69,4.69 -2.59,0 -4.69,-2.1 -4.69,-4.69 0,-2.59 2.1,-4.69 4.69,-4.69zm-9 16.82c2.16,0 18.51,0.13 19.22,-0.09 1.71,-0.15 2.08,-1.66 2.08,-3.1l0 -18.07c-0.06,-1.48 -0.32,-2.88 -1.67,-2.89 -0.61,-0.15 -19.06,-0.19 -20.47,-0.06 -1.54,0.07 -2.12,1.06 -2.15,2.06 -0.06,1.44 -0.13,8.72 -0.13,9.93 0,0.64 -0.09,9.86 0.09,10.33 0.11,1.53 1.44,1.9 3.03,1.9z"/>
 </g>
</svg>
