<?xml version="1.0" encoding="UTF-8"?>
<!DOCTYPE svg PUBLIC "-//W3C//DTD SVG 1.1//EN" "http://www.w3.org/Graphics/SVG/1.1/DTD/svg11.dtd">
<!-- Creator: CorelDRAW 2018 (64-Bit) -->
<svg xmlns="http://www.w3.org/2000/svg" xml:space="preserve" width="9.3165mm" height="8.1937mm" version="1.1" style="shape-rendering:geometricPrecision; text-rendering:geometricPrecision; image-rendering:optimizeQuality; fill-rule:evenodd; clip-rule:evenodd"
viewBox="0 0 58.91 51.81"
 xmlns:xlink="http://www.w3.org/1999/xlink">
 <defs>
  <style type="text/css">
   <![CDATA[
    .fil0 {fill:#434242}
   ]]>
  </style>
 </defs>
 <g id="Слой_x0020_1">
  <metadata id="CorelCorpID_0Corel-Layer"/>
  <path class="fil0" d="M24.13 30.06l0 -10.5c-0.02,-1.46 -0.27,-5.24 0.95,-6.3 0.77,-0.66 2.24,-0.64 3.19,-0.64l14.42 0 0 -1.73c0,-0.79 0.63,-1.45 1.42,-1.45l5.25 0c0.79,0 1.43,0.66 1.43,1.45l0 12.22c0.02,0.37 0.04,0.74 0.08,1.12 0.04,0.36 0.23,0.87 0.35,1.2 0.22,0.43 0.48,0.83 0.78,1.21 0.36,0.46 0.75,0.88 1.05,1.39 0.12,0.21 0.22,0.42 0.3,0.65 1.27,3.7 -3.05,6.61 -5.84,3.86 -0.88,-0.86 -1.05,-1.77 -0.97,-2.96 0.03,-0.46 0.2,-0.88 0.42,-1.27l-0.26 0c-0.87,0 -1.73,0 -2.6,0 -0.79,0 -1.42,-0.66 -1.42,-1.45l0 -0.96 -4.43 -0c-0.77,0 -0.6,0.33 -0.61,1.07l0 3.08 1.15 0c0.75,0 1.39,0.59 1.39,1.36l0 5.15c0,0.76 -0.64,1.36 -1.39,1.36l-1.15 0c-0.01,0.39 -0.01,0.81 -0.05,1.18 -0.34,3.15 -0.22,4.43 -2.26,7.27 -1.51,2.1 -3.63,3.82 -6.09,4.67 -3.09,1.06 -6.79,0.71 -10.02,0.71 -3.52,0 -6.14,0.28 -9.42,-1.33 -2.33,-1.15 -4.23,-3.05 -5.46,-5.33 -1.76,-3.25 -1.5,-5.61 -1.5,-9.18l0.01 -27.57 0.01 -0.13 -1.55 0c-0.72,0 -1.31,-0.59 -1.31,-1.31l0 -5.58c0,-0.72 0.59,-1.31 1.31,-1.31l16.68 0c0.72,0 1.31,0.59 1.31,1.31l0 5.58c0,0.72 -0.59,1.31 -1.31,1.31l-1.61 0 -0.03 2.37c0.03,0.75 0.04,1.49 0.04,2.23 0,2.73 -0.04,5.47 -0.04,8.21l0 14.04c0.01,0.47 0.01,0.97 0.06,1.44 0.16,1.72 1.38,1.71 2.81,1.7 0.8,-0.01 2.99,0.28 3.8,-0.26 -0.02,-0.01 -0.05,-0.01 -0.07,-0.02 -0.75,-0.01 -1.37,-0.6 -1.37,-1.36l0 -5.15c0,-0.76 0.64,-1.36 1.39,-1.36l1.15 0zm31.36 -0.73c0.32,0.15 0.37,0.46 0.48,0.76 0.3,0.74 0.72,1.42 1.21,2.04 0.4,0.51 0.85,0.99 1.18,1.56 0.12,0.21 0.23,0.44 0.31,0.67 1.33,3.87 -3.15,6.85 -6.03,4.01 -0.92,-0.91 -1.07,-1.83 -0.99,-3.08 0.06,-0.91 0.69,-1.71 1.18,-2.45 0.58,-0.76 1.1,-1.53 1.46,-2.42 0.22,-0.54 0.38,-1.47 1.2,-1.09zm-5.02 -1.51c-0.19,0.46 -0.67,0.49 -1.17,0.5 -0.27,0.34 -0.59,0.75 -0.72,1.16 -0.36,1.12 0.31,2.15 1.52,2.13 1.23,-0.02 1.85,-1.06 1.46,-2.19 -0.15,-0.45 -0.5,-0.86 -0.79,-1.22 -0.1,-0.12 -0.2,-0.25 -0.3,-0.38zm-7.78 -3.8l0 -9.63c-4.35,0.08 -8.7,-0.04 -13.06,-0 -0.79,-0.01 -2.79,-0.13 -3.38,0.52 -0.61,0.67 -0.39,3.74 -0.4,4.65l0 10.5 10.07 0 0 -2.15c-0.01,-0.29 -0.01,-0.59 0,-0.87l0 -0.06c0.06,-1.72 0.18,-2.95 2.31,-2.95l4.46 0zm1.86 1.78c0,0.35 0.28,0.64 0.63,0.64l3.13 0c0.31,0 0.56,-0.22 0.61,-0.5l0.01 -14.07c-0.04,-0.31 -0.3,-0.55 -0.62,-0.55l-3.13 0c-0.35,0 -0.63,0.29 -0.63,0.64l0 8.62c0,0.22 0.01,0.45 0.01,0.67 0,0.27 -0,0.54 -0.01,0.81l0 3.75zm-20.52 6c-0.36,0 -0.68,0.29 -0.68,0.66l0 3.07c0,0.37 0.31,0.66 0.68,0.66l13.71 0c0.36,0 0.68,-0.29 0.68,-0.66l0 -3.07c0,-0.37 -0.31,-0.66 -0.68,-0.66l-13.71 0zm-9.48 -23.59l-9.85 0 0 26.7c0,3 -0.34,5.99 1.01,8.78 2.85,5.87 7.25,6.24 13.11,6.24 2.77,0 6.67,0.33 9.28,-0.44 4.96,-1.47 8.13,-6.47 7.62,-11.56l-10.2 0c-0.95,1.49 -1.83,2.11 -3.68,2.13 -3.75,0.04 -7.27,0.68 -7.26,-4.34 0,-1.4 0.02,-2.81 0.02,-4.21l0 -21.89c-0.01,-0.45 -0.01,-0.94 -0.05,-1.4zm-12.12 -6.63c-0.48,0 -0.87,0.39 -0.87,0.87l0 3.32c0,0.48 0.39,0.87 0.87,0.87l14.46 0c0.48,0 0.87,-0.39 0.87,-0.87l0 -3.32c0,-0.48 -0.39,-0.87 -0.87,-0.87l-14.46 0zm52.8 31.04c-0.04,0.08 -0.08,0.15 -0.12,0.23 -0.16,0.29 -0.34,0.58 -0.55,0.85 -0.29,0.38 -0.67,0.81 -0.82,1.27 -0.36,1.13 0.34,2.18 1.55,2.16 1.22,-0.02 1.87,-1.08 1.49,-2.21 -0.14,-0.42 -0.44,-0.78 -0.71,-1.12 -0.3,-0.38 -0.6,-0.76 -0.85,-1.17z"/>
 </g>
</svg>
