<?xml version="1.0" encoding="UTF-8"?>
<!DOCTYPE svg PUBLIC "-//W3C//DTD SVG 1.1//EN" "http://www.w3.org/Graphics/SVG/1.1/DTD/svg11.dtd">
<!-- Creator: CorelDRAW 2018 (64-Bit) -->
<svg xmlns="http://www.w3.org/2000/svg" xml:space="preserve" width="3.7472mm" height="3.5231mm" version="1.1" style="shape-rendering:geometricPrecision; text-rendering:geometricPrecision; image-rendering:optimizeQuality; fill-rule:evenodd; clip-rule:evenodd"
viewBox="0 0 3.26 3.06"
 xmlns:xlink="http://www.w3.org/1999/xlink">
 <defs>
  <style type="text/css">
   <![CDATA[
    .fil0 {fill:#2B2A29}
   ]]>
  </style>
 </defs>
 <g id="Слой_x0020_1">
  <metadata id="CorelCorpID_0Corel-Layer"/>
  <path class="fil0" d="M1.17 2.12l-0.07 0.2 1.52 -0c0.04,0 0.08,-0 0.12,0.01 0.05,0.01 0.08,0.05 0.08,0.1 0,0.03 -0.01,0.06 -0.03,0.08 -0.04,0.04 -0.09,0.03 -0.13,0.03 0.01,0.02 0.03,0.05 0.04,0.08 0.03,0.08 0.02,0.16 -0.01,0.24 -0.16,0.35 -0.69,0.18 -0.63,-0.2 0.01,-0.04 0.02,-0.07 0.04,-0.1 0,-0 0.01,-0.01 0.01,-0.02 -0.03,-0 -0.05,-0 -0.07,-0 -0.07,-0 -0.15,-0 -0.22,-0 -0.07,0 -0.14,0 -0.21,0 -0.02,0 -0.05,0 -0.07,0 0,0.01 0.01,0.01 0.01,0.01 0.02,0.03 0.03,0.06 0.04,0.1 0.01,0.06 0,0.16 -0.03,0.22 -0.08,0.14 -0.21,0.22 -0.37,0.18 -0.21,-0.05 -0.32,-0.27 -0.22,-0.47 0,-0.01 0.01,-0.02 0.02,-0.03 -0,-0 -0.01,-0 -0.01,-0 -0.14,-0.01 -0.15,-0.08 -0.11,-0.2 0.02,-0.05 0.06,-0.16 0.08,-0.22 -0.04,-0 -0.07,-0.01 -0.1,-0.03 -0.06,-0.05 -0.07,-0.25 -0.09,-0.33 -0.03,-0.15 -0.05,-0.31 -0.08,-0.46 -0.06,-0.3 -0.1,-0.6 -0.16,-0.89l-0.31 -0.12c-0.05,-0.02 -0.13,-0.04 -0.16,-0.09 -0.02,-0.04 -0.03,-0.07 -0.01,-0.11 0.07,-0.13 0.18,-0.07 0.28,-0.03 0.06,0.02 0.11,0.04 0.17,0.06 0.05,0.02 0.11,0.05 0.16,0.07 0.09,0.03 0.11,0.06 0.13,0.15 0.02,0.13 0.05,0.26 0.07,0.39 0.02,0.13 0.04,0.26 0.07,0.39 0.04,0.19 0.07,0.39 0.11,0.58 0.01,0.04 0.02,0.12 0.03,0.17l1.58 0c0.02,-0.05 0.04,-0.12 0.06,-0.17 0.04,-0.13 0.08,-0.25 0.12,-0.38 0.04,-0.13 0.08,-0.26 0.12,-0.38 0.02,-0.05 0.03,-0.11 0.05,-0.16 -0.01,-0 -0.01,0 -0.02,0 -0.3,-0.01 -0.61,-0.03 -0.91,-0.04 -0.15,-0 -0.31,-0.01 -0.46,-0.02 -0.08,-0 -0.15,-0.01 -0.23,-0.01 -0.04,-0 -0.21,-0.01 -0.24,-0.02 -0.08,-0.03 -0.11,-0.13 -0.06,-0.2 0.05,-0.07 0.16,-0.05 0.24,-0.05 0.16,0.01 0.32,0.01 0.48,0.02 0.32,0.01 0.65,0.02 0.97,0.04 0.09,0.01 0.41,-0 0.47,0.04 0.09,0.06 0.06,0.13 0.03,0.21l-0.38 1.18c-0.02,0.05 -0.04,0.12 -0.08,0.15 -0.06,0.04 -0.25,0.02 -0.32,0.02 -0.43,0 -0.86,0 -1.29,0zm1.17 0.51c-0.06,0.02 -0.09,0.07 -0.07,0.13 0.04,0.14 0.25,0.07 0.21,-0.07 -0.02,-0.06 -0.08,-0.09 -0.14,-0.07zm-1.12 -0c-0.15,0.04 -0.08,0.25 0.05,0.21 0.06,-0.02 0.09,-0.07 0.08,-0.13 -0.01,-0.06 -0.07,-0.1 -0.13,-0.08z"/>
 </g>
</svg>
