<?xml version="1.0" encoding="UTF-8"?>
<!DOCTYPE svg PUBLIC "-//W3C//DTD SVG 1.1//EN" "http://www.w3.org/Graphics/SVG/1.1/DTD/svg11.dtd">
<!-- Creator: CorelDRAW 2018 (64-Bit) -->
<svg xmlns="http://www.w3.org/2000/svg" xml:space="preserve" width="8.2854mm" height="9.4952mm" version="1.1" style="shape-rendering:geometricPrecision; text-rendering:geometricPrecision; image-rendering:optimizeQuality; fill-rule:evenodd; clip-rule:evenodd"
viewBox="0 0 86.3 98.9"
 xmlns:xlink="http://www.w3.org/1999/xlink">
 <defs>
  <style type="text/css">
   <![CDATA[
    .fil0 {fill:#434242}
   ]]>
  </style>
 </defs>
 <g id="Слой_x0020_1">
  <metadata id="CorelCorpID_0Corel-Layer"/>
  <path class="fil0" d="M42.72 98.82c-2.87,-1.04 -6.77,-4.18 -9.27,-6.07 -8.92,-6.74 -15.94,-15.09 -21.66,-24.65 -8.89,-14.87 -12.4,-32.79 -11.7,-49.97 0.02,-0.58 0.42,-1.06 0.99,-1.18 10.51,-2.28 21.06,-6.39 30.66,-11.2 2.59,-1.29 5.11,-2.72 7.6,-4.19 0.97,-0.57 2.44,-1.28 3.53,-1.52 0.19,-0.04 0.35,-0.04 0.54,0 1.27,0.28 2.44,0.86 3.55,1.52 2.49,1.47 5.01,2.89 7.6,4.19 9.6,4.81 20.1,9.04 30.64,11.2 0.58,0.12 0.98,0.6 1.01,1.18 0.7,17.19 -2.81,35.11 -11.7,49.97 -5.72,9.57 -12.75,17.92 -21.66,24.65 -2.48,1.87 -6.43,5.05 -9.27,6.07 -0.29,0.1 -0.57,0.1 -0.86,-0zm0.41 -95.2c-0.96,0.31 -1.95,0.87 -2.8,1.35 -2.06,1.19 -4.12,2.38 -6.25,3.46 -6.57,3.32 -13.29,6.41 -20.28,8.73 -3.38,1.12 -6.84,1.95 -10.24,2.99 -0.92,15.42 3.66,32.91 11.33,46.22 6.14,10.66 17.3,22.85 28.25,28.75 10.95,-5.9 22.11,-18.09 28.25,-28.75 7.67,-13.31 12.24,-30.8 11.33,-46.22 -3.4,-1.03 -6.86,-1.86 -10.24,-2.99 -6.99,-2.33 -13.71,-5.42 -20.28,-8.73 -2.13,-1.07 -4.18,-2.27 -6.25,-3.46 -0.88,-0.5 -1.85,-1.04 -2.83,-1.35zm-9.58 51.01l31.05 -31.53c0.47,-0.47 1.22,-0.5 1.72,-0.07l7.16 6.22c0.27,0.24 0.42,0.54 0.43,0.91 0.01,0.36 -0.11,0.68 -0.37,0.93l-38.53 38.72c-0.47,0.47 -1.22,0.5 -1.72,0.06l-14.14 -12.39c-0.27,-0.24 -0.42,-0.54 -0.43,-0.9 -0.01,-0.36 0.11,-0.67 0.36,-0.93l6.38 -6.49c0.47,-0.48 1.22,-0.5 1.73,-0.07l6.35 5.53zm11.31 -38.83l0.01 18.63 -0.05 2.4c-0,0.11 -0.02,0.21 -0.05,0.31 -0.19,0.66 -0.99,1.19 -1.67,1.19 -0.78,0 -1.63,-0.66 -1.7,-1.51l-0.08 -2.49 0.07 -18.84c-6.34,4.1 -12.77,7.8 -19.91,10.45 -2.36,0.88 -4.88,1.35 -7.21,2.28 -0.16,5.96 1.89,13.92 3.53,19.62 0.23,0.79 0.37,1.19 0.12,2.03 -0.22,0.77 -1.12,1.22 -1.89,1.12 -1.04,-0.13 -1.39,-1 -1.67,-1.86 -1.73,-5.3 -4.63,-17.56 -3.6,-22.87 0.08,-0.41 0.33,-0.73 0.7,-0.9 1.43,-0.67 3,-1.02 4.5,-1.45 10.1,-2.93 17.76,-7.8 26.52,-13.37 0.46,-0.29 1.03,-0.26 1.46,0.08 4.02,3.17 6.36,5.04 11.24,6.88 0.72,0.27 1.45,0.52 2.18,0.77 0.95,0.33 1.81,0.74 1.81,1.94 0,1.97 -2.03,1.76 -3.25,1.3 -4.21,-1.42 -7.7,-3.16 -11.07,-5.71zm-3.5 66.89l-0.01 -14.65c0.02,-2.19 3.57,-2.19 3.57,0.02l0 14.76c10.07,-7.83 18.33,-20.88 22.88,-32.39 0.58,-1.35 1.08,-2.73 1.57,-4.12 0.94,-2.71 1.95,-5.48 2.52,-8.3 0.38,-1.88 3.65,-2.09 3.34,0.64 -0.59,5.18 -4.41,14.15 -6.74,18.95 -2.95,6.08 -6.39,11.93 -10.53,17.28 -3.24,4.18 -9.59,10.66 -14.21,13.18 -0.37,0.2 -0.77,0.21 -1.15,0.03 -2.64,-1.28 -12.19,-9.74 -13.93,-12.19 -0.81,-1.14 -0.28,-2.81 1.39,-2.93 0.5,0.03 0.97,0.31 1.31,0.66 3.07,3.26 6.5,6.24 10,9.06zm-14.69 -29.51l-3.32 3.35 10.78 9.42 35.12 -35.59 -3.68 -3.21 -30.89 31.43c-0.47,0.48 -1.22,0.51 -1.73,0.07l-6.3 -5.46z"/>
 </g>
</svg>
