<?xml version="1.0" encoding="UTF-8"?>
<!DOCTYPE svg PUBLIC "-//W3C//DTD SVG 1.1//EN" "http://www.w3.org/Graphics/SVG/1.1/DTD/svg11.dtd">
<!-- Creator: CorelDRAW 2018 (64-Bit) -->
<svg xmlns="http://www.w3.org/2000/svg" xml:space="preserve" width="8.2909mm" height="8.874mm" version="1.1" style="shape-rendering:geometricPrecision; text-rendering:geometricPrecision; image-rendering:optimizeQuality; fill-rule:evenodd; clip-rule:evenodd"
viewBox="0 0 30.9 33.08"
 xmlns:xlink="http://www.w3.org/1999/xlink">
 <defs>
  <style type="text/css">
   <![CDATA[
    .fil0 {fill:#434242}
   ]]>
  </style>
 </defs>
 <g id="Слой_x0020_1">
  <metadata id="CorelCorpID_0Corel-Layer"/>
  <path class="fil0" d="M16.78 5.97c3.76,-2.66 8.61,-3.86 13.15,-4.21l0.73 -0.06c0.07,-0.01 0.14,0.02 0.19,0.07 0.05,0.05 0.07,0.12 0.06,0.19l-0.09 0.72c-0.47,3.97 -1.58,8.09 -3.72,11.51l-0 0c-1.1,1.75 -2.47,3.32 -4.14,4.54 0.13,1.01 0.14,2.04 0.01,3.05 -0.76,6 -4.96,11.28 -11.38,11.28l-0.11 0c-6.42,0 -10.61,-5.29 -11.38,-11.28 -0.65,-5.08 2.3,-10.43 5.16,-14.43 1.7,-2.38 3.61,-4.62 5.61,-6.76l0.5 -0.54c0.05,-0.05 0.1,-0.07 0.17,-0.07 0.07,0 0.13,0.03 0.17,0.07l0.5 0.54c1.6,1.72 3.15,3.49 4.58,5.36zm5.12 13.48c-2.8,1.68 -5.94,2.21 -9.19,1.98 -0.68,-0.05 -1.21,-0.07 -1.86,-0.29 -0.08,-0.03 -0.13,-0.09 -0.15,-0.17 -0.1,-0.42 -0.15,-0.79 -0.18,-1.21 -0.32,-5.2 1.3,-9.79 5.37,-13.09 -1.36,-1.78 -2.82,-3.48 -4.35,-5.12 -1.92,2.05 -3.74,4.2 -5.37,6.49 -2.67,3.73 -5.56,8.88 -4.96,13.63 0.69,5.44 4.43,10.3 10.26,10.3l0.12 0c5.84,0 9.57,-4.87 10.27,-10.3 0.09,-0.73 0.1,-1.47 0.04,-2.21zm-10.39 0.21l4.01 -3.86c0.02,-0.09 0.09,-0.17 0.18,-0.19l0.02 -0 5.82 -5.59 2.05 -6.12c-7.65,2.22 -12.55,7.52 -12.08,15.76zm13.25 -16.07l-1.65 4.92 5.87 -5.64c-1.43,0.15 -2.83,0.38 -4.22,0.72zm4.92 0l-12.09 11.62 8.85 -1.87c1.76,-2.93 2.75,-6.37 3.25,-9.75zm-13.53 13l-3.94 3.79c5.49,0.53 10.17,-1.32 13.4,-5.78l-9.46 2z"/>
 </g>
</svg>
