<?xml version="1.0" encoding="UTF-8"?>
<!DOCTYPE svg PUBLIC "-//W3C//DTD SVG 1.1//EN" "http://www.w3.org/Graphics/SVG/1.1/DTD/svg11.dtd">
<!-- Creator: CorelDRAW 2018 (64-Bit) -->
<svg xmlns="http://www.w3.org/2000/svg" xml:space="preserve" width="11.8978mm" height="11.8973mm" version="1.1" style="shape-rendering:geometricPrecision; text-rendering:geometricPrecision; image-rendering:optimizeQuality; fill-rule:evenodd; clip-rule:evenodd"
viewBox="0 0 56.33 56.33"
 xmlns:xlink="http://www.w3.org/1999/xlink">
 <defs>
  <style type="text/css">
   <![CDATA[
    .fil0 {fill:#8D8D93}
   ]]>
  </style>
 </defs>
 <g id="Слой_x0020_1">
  <metadata id="CorelCorpID_0Corel-Layer"/>
  <path class="fil0" d="M0.08 30.17c0.45,5.94 2.51,10.92 5.87,15.29 0.69,0.9 2.46,2.88 3.35,3.62 1.25,1.05 2.49,2.09 4.05,3.02 5.05,3.01 10.44,4.58 16.71,4.15 14.93,-1.02 27.29,-13.81 26.21,-30.07 -0.99,-14.83 -13.91,-27.26 -30.1,-26.11 -6.25,0.44 -10.74,2.56 -15.3,5.89 -0.94,0.68 -2.86,2.46 -3.63,3.34 -4.13,4.74 -7.84,11.83 -7.16,20.87zm25.59 1.64l7.23 -3.7 -7.21 -3.57 -0.02 7.27zm-6.15 6.01c0.93,0.21 17.41,0.26 18.4,0 1.57,-0.4 2.74,-0.64 3.48,-2.16 0.98,-2.37 0.72,-10.3 0.44,-12.89 -0.23,-2.15 -2.13,-3.61 -4.2,-3.65 -5.27,-0.11 -11.9,-0.14 -17.23,-0.02 -2.01,0.05 -4.5,0.56 -4.86,2.97 -0.37,1.12 -0.72,7.36 -0.5,10.51 0.26,3.61 0.42,4.96 4.46,5.24z"/>
 </g>
</svg>
