<?xml version="1.0" encoding="UTF-8"?>
<!DOCTYPE svg PUBLIC "-//W3C//DTD SVG 1.1//EN" "http://www.w3.org/Graphics/SVG/1.1/DTD/svg11.dtd">
<!-- Creator: CorelDRAW 2018 (64-Bit) -->
<svg xmlns="http://www.w3.org/2000/svg" xml:space="preserve" width="3.4035mm" height="4.1917mm" version="1.1" style="shape-rendering:geometricPrecision; text-rendering:geometricPrecision; image-rendering:optimizeQuality; fill-rule:evenodd; clip-rule:evenodd"
viewBox="0 0 10.79 13.29"
 xmlns:xlink="http://www.w3.org/1999/xlink">
 <defs>
  <style type="text/css">
   <![CDATA[
    .fil1 {fill:#FEFEFE}
    .fil0 {fill:#328AE3}
   ]]>
  </style>
 </defs>
 <g id="Слой_x0020_1">
  <metadata id="CorelCorpID_0Corel-Layer"/>
  <g id="_1553379679040">
   <path class="fil0" d="M7.21 12.14l2.25 -2.27c0.3,-0.31 0.48,-0.49 0.69,-0.82 0.47,-0.73 0.63,-1.43 0.63,-2.39 0,-1 0,-2 0,-3 0,-0.48 0.02,-1.03 -0,-1.51 -0.05,-0.85 -0.62,-1.44 -1.44,-1.57 -0.44,-0.07 -0.88,-0.13 -1.32,-0.2 -0.66,-0.1 -1.33,-0.18 -1.96,-0.29 -0.19,-0.03 -0.48,-0.09 -0.67,-0.08 -0.19,-0.01 -0.47,0.05 -0.66,0.08 -0.63,0.11 -1.3,0.19 -1.96,0.29 -0.44,0.07 -0.88,0.12 -1.32,0.2 -0.82,0.13 -1.4,0.72 -1.44,1.57 -0.03,0.48 -0,1.02 -0,1.51 0,1 0,2 0,3 0,0.96 0.16,1.66 0.63,2.39 0.21,0.33 0.38,0.51 0.69,0.82l2.26 2.27c0.49,0.49 0.98,1.16 1.81,1.15 0.77,-0.01 1.32,-0.66 1.81,-1.15z"/>
   <path class="fil1" d="M5.43 1.78c1.16,0.02 2.12,0.94 2.12,2.14 0,1.21 -0.94,2.13 -2.12,2.16 -1.18,-0.03 -2.13,-0.95 -2.12,-2.16 0,-1.2 0.96,-2.12 2.12,-2.14zm0 4.82c-1.34,-0.02 -1.47,-0.68 -2.19,-0.44 -0.58,0.19 -0.91,1.13 -1.03,1.68 -0.07,0.33 -0.16,0.39 -0.06,0.51 0.85,0.92 2.02,1.45 3.28,1.46 1.26,-0.01 2.42,-0.54 3.28,-1.46 0.11,-0.11 0.02,-0.18 -0.06,-0.51 -0.12,-0.55 -0.45,-1.48 -1.03,-1.68 -0.72,-0.24 -0.85,0.42 -2.19,0.44z"/>
  </g>
 </g>
</svg>
