<?xml version="1.0" encoding="UTF-8"?>
<!DOCTYPE svg PUBLIC "-//W3C//DTD SVG 1.1//EN" "http://www.w3.org/Graphics/SVG/1.1/DTD/svg11.dtd">
<!-- Creator: CorelDRAW 2018 (64-Bit) -->
<svg xmlns="http://www.w3.org/2000/svg" xml:space="preserve" width="3.4131mm" height="4.226mm" version="1.1" style="shape-rendering:geometricPrecision; text-rendering:geometricPrecision; image-rendering:optimizeQuality; fill-rule:evenodd; clip-rule:evenodd"
viewBox="0 0 8.13 10.07"
 xmlns:xlink="http://www.w3.org/1999/xlink">
 <defs>
  <style type="text/css">
   <![CDATA[
    .fil0 {fill:#8D8D93;fill-rule:nonzero}
   ]]>
  </style>
 </defs>
 <g id="Слой_x0020_1">
  <metadata id="CorelCorpID_0Corel-Layer"/>
  <path class="fil0" d="M1.48 6.77l0 0c0.81,1.24 1.67,2.16 2.57,2.72 0.81,0.51 1.61,0.69 2.26,0.51 0.85,-0.24 1.37,-0.71 1.54,-0.95 0.35,-0.49 0.38,-1.06 0.08,-1.52 -0.05,-0.08 -0.11,-0.15 -0.17,-0.21 -0.08,-0.08 -0.15,-0.15 -0.22,-0.23 -0.41,-0.43 -0.8,-0.83 -1.1,-1.09 -0.34,-0.3 -1,-0.45 -1.54,-0.15 -0.19,0.11 -0.31,0.21 -0.4,0.29 -0.01,0.01 -0.02,0.02 -0.03,0.03 -0,-0 -0,-0 -0.01,-0.01 -0.22,-0.17 -0.42,-0.36 -0.73,-0.85 -0.31,-0.49 -0.41,-0.74 -0.47,-1.01 -0,-0 -0,-0 -0,-0.01 0.01,-0.01 0.03,-0.01 0.04,-0.02 0.11,-0.05 0.26,-0.12 0.43,-0.25 0.5,-0.37 0.63,-1.03 0.49,-1.46 -0.11,-0.38 -0.33,-0.9 -0.55,-1.45 -0.04,-0.09 -0.08,-0.19 -0.12,-0.29 -0.03,-0.09 -0.08,-0.17 -0.13,-0.24 -0.3,-0.46 -0.83,-0.66 -1.42,-0.55 -0.29,0.06 -0.94,0.34 -1.5,1.02 -0.42,0.51 -0.59,1.32 -0.45,2.27 0.15,1.05 0.63,2.21 1.44,3.45zm0.57 -0.37c-1.66,-2.56 -1.56,-4.28 -1.03,-4.92 0.46,-0.56 0.96,-0.76 1.11,-0.79 0.13,-0.03 0.51,-0.07 0.72,0.25 0.02,0.04 0.05,0.08 0.07,0.13 0.26,0.66 0.52,1.28 0.65,1.69 0.05,0.14 0.04,0.51 -0.25,0.72 -0.24,0.18 -0.43,0.2 -0.57,0.33 -0.09,0.1 -0.23,0.33 -0.16,0.64 0.09,0.38 0.23,0.7 0.56,1.23 0.35,0.53 0.59,0.78 0.89,1.02 0.26,0.19 0.52,0.16 0.65,0.12 0.18,-0.07 0.28,-0.23 0.54,-0.38 0.31,-0.17 0.65,-0.03 0.76,0.07 0.33,0.28 0.79,0.77 1.28,1.28 0.03,0.04 0.06,0.07 0.09,0.11 0.21,0.32 0.01,0.65 -0.06,0.76 -0.09,0.12 -0.47,0.5 -1.17,0.69 -0.8,0.22 -2.41,-0.39 -4.07,-2.95z"/>
 </g>
</svg>
