<?xml version="1.0" encoding="UTF-8"?>
<!DOCTYPE svg PUBLIC "-//W3C//DTD SVG 1.1//EN" "http://www.w3.org/Graphics/SVG/1.1/DTD/svg11.dtd">
<!-- Creator: CorelDRAW 2018 (64-Bit) -->
<svg xmlns="http://www.w3.org/2000/svg" xml:space="preserve" width="3.8141mm" height="3.339mm" version="1.1" style="shape-rendering:geometricPrecision; text-rendering:geometricPrecision; image-rendering:optimizeQuality; fill-rule:evenodd; clip-rule:evenodd"
viewBox="0 0 3.8 3.32"
 xmlns:xlink="http://www.w3.org/1999/xlink">
 <defs>
  <style type="text/css">
   <![CDATA[
    .fil0 {fill:#2B2A29}
   ]]>
  </style>
 </defs>
 <g id="Слой_x0020_1">
  <metadata id="CorelCorpID_0Corel-Layer"/>
  <path class="fil0" d="M2.68 1.31c-0.09,0.38 -0.46,0.73 -0.96,0.62 -0.37,-0.08 -0.72,-0.47 -0.61,-0.96 0.09,-0.38 0.46,-0.72 0.96,-0.61 0.37,0.08 0.73,0.48 0.61,0.96zm-2.68 1.88l0 0.14 0.33 0c0.02,-0.35 0.16,-0.66 0.45,-0.86 0.36,-0.24 0.64,-0.19 1.12,-0.19 0.48,0 0.76,-0.05 1.12,0.19 0.23,0.15 0.43,0.43 0.45,0.85l0.33 0.01 0 -0.1c-0.05,-0.17 -0.01,-0.34 -0.23,-0.67 -0.18,-0.27 -0.49,-0.51 -0.88,-0.59 0.03,-0.04 0.1,-0.1 0.19,-0.25 0.19,-0.3 0.2,-0.73 0.07,-1.04 -0.16,-0.35 -0.53,-0.68 -1.05,-0.68 -0.51,0 -0.9,0.34 -1.04,0.69 -0.09,0.21 -0.12,0.49 -0.05,0.74 0.1,0.36 0.26,0.45 0.32,0.54 -0.44,0.09 -0.8,0.37 -0.98,0.76 -0.12,0.26 -0.09,0.34 -0.13,0.45z"/>
 </g>
</svg>
