<?xml version="1.0" encoding="UTF-8"?>
<!DOCTYPE svg PUBLIC "-//W3C//DTD SVG 1.1//EN" "http://www.w3.org/Graphics/SVG/1.1/DTD/svg11.dtd">
<!-- Creator: CorelDRAW 2018 (64-Bit) -->
<svg xmlns="http://www.w3.org/2000/svg" xml:space="preserve" width="3.871mm" height="4.0009mm" version="1.1" style="shape-rendering:geometricPrecision; text-rendering:geometricPrecision; image-rendering:optimizeQuality; fill-rule:evenodd; clip-rule:evenodd"
viewBox="0 0 7.46 7.71"
 xmlns:xlink="http://www.w3.org/1999/xlink">
 <defs>
  <style type="text/css">
   <![CDATA[
    .fil0 {fill:#8D8D93}
   ]]>
  </style>
 </defs>
 <g id="Слой_x0020_1">
  <metadata id="CorelCorpID_0Corel-Layer"/>
  <path class="fil0" d="M6.25 1.63c0.88,0.58 1.19,0.63 1.21,1.78 0.01,0.33 -0.01,0.65 -0.01,0.97l-0 2.61c-0,0.92 -0.97,0.7 -1.58,0.7l-4.25 0c-0.62,0 -1.61,0.23 -1.61,-0.7l0 -4.01c0,-0.51 0.33,-0.81 0.72,-1.07 0.3,-0.2 0.58,-0.42 0.88,-0.62 0.36,-0.25 0.77,-0.49 1.11,-0.77l0.5 -0.35c0.34,-0.21 0.58,-0.24 0.93,-0l2.11 1.46zm-5.56 0.94c0.12,0.11 0.46,0.34 0.56,0.41 0.22,0.16 0.44,0.31 0.66,0.47l0.66 0.47c0.21,0.15 0.42,0.3 0.63,0.44 0.21,-0.08 0.18,-0.16 0.49,-0.15 0.27,0 0.31,0.11 0.44,0.16 0.06,-0.04 0.2,-0.15 0.24,-0.17 0.09,-0.06 0.18,-0.12 0.27,-0.19l2.11 -1.45c-0.17,-0.15 -0.71,-0.49 -0.86,-0.59l-1.87 -1.32c-0.29,-0.2 -0.46,-0.14 -0.73,0.06 -0.05,0.04 -0.1,0.08 -0.15,0.11l-2.04 1.41c-0.14,0.1 -0.29,0.2 -0.42,0.33zm6.19 4.6c0.2,-0.39 -0.71,-0.83 -0.97,-1.01l-2.01 -1.4c-0.3,-0.14 -0.53,0.09 -0.76,0.26l-2.01 1.41c-0.15,0.11 -0.53,0.33 -0.6,0.5 -0.15,0.4 0.42,0.25 0.66,0.25 0.93,0 1.87,0.01 2.8,0.01 0.64,0 1.28,0 1.92,-0 0.23,-0 0.72,0.01 0.96,-0.02zm-2.24 -2.51c0.24,0.23 0.91,0.64 1.15,0.81 0.18,0.12 0.86,0.64 1.13,0.78l0 -3.2c-0.76,0.54 -1.56,1.03 -2.28,1.61zm-4.15 -1.6l0 3.19c0.27,-0.14 0.95,-0.66 1.13,-0.78 0.24,-0.16 0.89,-0.58 1.13,-0.8 -0.17,-0.13 -0.36,-0.25 -0.53,-0.37l-1.73 -1.24z"/>
 </g>
</svg>
