<svg width="37" height="36" viewBox="0 0 37 36" fill="none" xmlns="http://www.w3.org/2000/svg">
<path d="M14.1267 9.16448C14.5402 9.70869 14.9613 10.2479 15.3678 10.7976C16.1379 11.8457 15.9605 13.1496 14.9354 13.952C14.2833 14.4626 13.6167 14.9542 12.9595 15.4581C12.4664 15.8328 12.3903 16.2148 12.6614 16.7678C13.9556 19.4238 15.7605 21.7988 17.973 23.757C18.4157 24.1502 18.811 24.1754 19.2944 23.8148C19.9261 23.3408 20.552 22.8591 21.1808 22.3812C22.3486 21.4998 23.6335 21.675 24.5199 22.8375C25.2946 23.8568 26.0692 24.8761 26.8438 25.8954C27.7294 27.0607 27.5377 28.3567 26.3803 29.2627C25.2512 30.1464 24.0735 30.9404 22.6759 31.3309C19.2706 32.2764 16.2417 31.5866 13.6262 29.1943C12.7039 28.3507 11.7829 27.5048 10.915 26.6048C9.42633 25.0534 8.17454 23.2909 7.20005 21.3742C6.65633 20.3146 6.05027 19.2662 5.67707 18.1433C4.51403 14.666 5.24598 11.5319 7.69005 8.82581C8.29636 8.15474 9.04685 7.60098 9.78159 7.06221C10.8099 6.30864 12.0932 6.5265 12.8841 7.53246C13.3068 8.06977 13.7127 8.61979 14.1267 9.16448ZM12.9365 10.078C12.5287 9.54142 12.1253 9.00159 11.7132 8.46829C11.409 8.0769 11.007 8.00023 10.6293 8.29177C10.0589 8.73132 9.45202 9.14578 8.959 9.66442C6.70747 12.0328 6.05848 14.791 7.17166 17.8834C7.50095 18.8007 8.00796 19.6553 8.4516 20.5286C9.40646 22.4109 10.5994 24.1364 12.0713 25.6507C12.9348 26.5389 13.8456 27.3844 14.7703 28.2103C16.903 30.117 19.3701 30.6616 22.1258 29.9317C23.3916 29.5968 24.4482 28.8835 25.458 28.0837C25.9789 27.6713 26.0348 27.3114 25.6334 26.7822C24.8703 25.7781 24.1078 24.7748 23.3458 23.772C22.9394 23.2374 22.5952 23.193 22.0518 23.6037C21.3695 24.1222 20.6952 24.6512 19.9985 25.1498C19.5722 25.4472 19.0593 25.5949 18.5401 25.5698C18.021 25.5447 17.5247 25.3482 17.1291 25.0111C14.6747 22.8596 12.7154 20.3251 11.2955 17.3845C10.7234 16.2093 10.9999 15.0705 12.0314 14.2806C12.6737 13.7887 13.3215 13.3002 13.9632 12.8125C14.411 12.4684 14.4625 12.0909 14.1285 11.6414C13.7318 11.1175 13.3336 10.5985 12.9386 10.0787L12.9365 10.078Z" fill="#0064AD" stroke="#0064AD" stroke-width="0.5"/>
<path d="M30.439 9.24104C32.7337 12.3596 33.7225 16.1789 33.1671 20.3954C33.1079 20.8451 32.8994 21.0895 32.5384 21.155C32.2254 21.2113 31.8897 21.079 31.7667 20.7812C31.6896 20.5772 31.6649 20.3571 31.6947 20.141C31.927 18.4199 31.8419 16.6707 31.4435 14.9803C30.8071 12.324 29.3968 9.9162 27.3913 8.06179C25.3857 6.20739 22.875 4.98974 20.1771 4.563C20.006 4.53624 19.8337 4.51489 19.6642 4.4832C19.2045 4.3991 18.9324 4.04891 18.9955 3.6301C19.0586 3.21129 19.4133 2.94703 19.8816 3.00491C21.4225 3.19328 22.9256 3.61534 24.3393 4.25657C26.6889 5.32308 28.6387 6.89481 30.439 9.24104Z" fill="#0064AD" stroke="#0064AD" stroke-width="0.5"/>
<path d="M26.5031 12.229C28.013 14.2902 28.7149 16.9248 28.3179 19.842C28.2508 20.3339 27.9177 20.6127 27.476 20.5572C27.0343 20.5017 26.769 20.1327 26.8368 19.6297C27.0865 17.7764 26.8442 15.9955 25.9922 14.326C24.5758 11.5497 22.3266 9.89235 19.2445 9.35379C19.1211 9.33225 18.9951 9.3232 18.8737 9.29637C18.4558 9.20468 18.2072 8.8517 18.27 8.44742C18.3329 8.04313 18.6781 7.7416 19.0992 7.82858C19.9448 8.00302 20.8057 8.15983 21.6143 8.45128C23.5082 9.13529 25.0479 10.3252 26.5031 12.229Z" fill="#0064AD" stroke="#0064AD" stroke-width="0.5"/>
<path d="M21.9805 15.1914C22.8516 16.3941 23.2183 17.7315 23.0139 19.2142C22.9584 19.6182 22.687 19.875 22.3159 19.9015C22.1513 19.9157 21.9869 19.8729 21.8502 19.7804C21.7134 19.6878 21.6126 19.551 21.5647 19.393C21.5307 19.2536 21.5231 19.109 21.5423 18.9668C21.7669 16.767 20.4021 14.9671 18.2234 14.5997C17.7132 14.5134 17.4316 14.1817 17.4941 13.7392C17.5566 13.2968 17.9435 13.0412 18.462 13.1205C19.9094 13.3418 21.0713 14.0485 21.9805 15.1914Z" fill="#0064AD" stroke="#0064AD" stroke-width="0.5"/>
</svg>
