<?xml version="1.0" encoding="UTF-8"?>
<!DOCTYPE svg PUBLIC "-//W3C//DTD SVG 1.1//EN" "http://www.w3.org/Graphics/SVG/1.1/DTD/svg11.dtd">
<!-- Creator: CorelDRAW 2018 (64-Bit) -->
<svg xmlns="http://www.w3.org/2000/svg" xml:space="preserve" width="5.246mm" height="4.5958mm" version="1.1" style="shape-rendering:geometricPrecision; text-rendering:geometricPrecision; image-rendering:optimizeQuality; fill-rule:evenodd; clip-rule:evenodd"
viewBox="0 0 12.83 11.24"
 xmlns:xlink="http://www.w3.org/1999/xlink">
 <defs>
  <style type="text/css">
   <![CDATA[
    .fil0 {fill:black}
    .fil1 {fill:#DF0610}
   ]]>
  </style>
 </defs>
 <g id="Слой_x0020_1">
  <metadata id="CorelCorpID_0Corel-Layer"/>
  <g id="_2347601654928">
   <path class="fil0" d="M5.77 3.73c0,0.43 0.19,1.34 0.26,1.81 0.05,0.29 0.1,0.59 0.14,0.88l0.1 0.66c0.01,0.1 0.02,0.14 0.12,0.14 0.17,0.01 0.15,-0.07 0.19,-0.32l0.36 -2.22c0.06,-0.32 0.12,-0.64 0.12,-0.97 0,-0.81 -1.29,-0.83 -1.29,0.01zm0.64 5.49c0.41,0 0.72,-0.33 0.73,-0.72 0.01,-0.53 -0.56,-0.89 -1.03,-0.66 -0.72,0.35 -0.44,1.38 0.3,1.38z"/>
   <path class="fil1" d="M7.44 0.6l5.15 8.72c0.15,0.26 0.25,0.4 0.25,0.72 0,0.59 -0.45,1.08 -1.05,1.18l-0.03 0 -5.34 0.03 -5.13 -0.03 -0.17 -0c-0.63,-0.07 -1.11,-0.56 -1.11,-1.17 0,-0.34 0.09,-0.47 0.25,-0.73l5.15 -8.72c0.21,-0.35 0.61,-0.6 1.02,-0.6 0.42,0 0.81,0.25 1.02,0.6zm-1.02 0.76l-5.07 8.59 5.07 0.03 5.07 -0.02 -5.07 -8.59z"/>
  </g>
 </g>
</svg>
