<?xml version="1.0" encoding="UTF-8"?>
<!DOCTYPE svg PUBLIC "-//W3C//DTD SVG 1.1//EN" "http://www.w3.org/Graphics/SVG/1.1/DTD/svg11.dtd">
<!-- Creator: CorelDRAW 2018 (64-Bit) -->
<svg xmlns="http://www.w3.org/2000/svg" xml:space="preserve" width="4.0404mm" height="4.6978mm" version="1.1" style="shape-rendering:geometricPrecision; text-rendering:geometricPrecision; image-rendering:optimizeQuality; fill-rule:evenodd; clip-rule:evenodd"
viewBox="0 0 5.18 6.03"
 xmlns:xlink="http://www.w3.org/1999/xlink">
 <defs>
  <style type="text/css">
   <![CDATA[
    .fil0 {fill:#2B2A29}
   ]]>
  </style>
 </defs>
 <g id="Слой_x0020_1">
  <metadata id="CorelCorpID_0Corel-Layer"/>
  <path class="fil0" d="M3.82 0.48l-3.33 0 0 5.06 3.33 0 0 -0.83c0,-0.14 0.09,-0.23 0.23,-0.23 0.13,0 0.23,0.1 0.23,0.23l0 1.08c0,0.13 -0.1,0.23 -0.23,0.23l-3.86 0c-0.15,-0 -0.19,-0.03 -0.19,-0.18l0 -5.67c0,-0.14 0.11,-0.18 0.23,-0.18 0.01,0 0.01,0 0.02,0l3.78 0c0.14,-0.01 0.25,0.09 0.25,0.23l0 1.08c0,0.13 -0.1,0.23 -0.23,0.23 -0.13,0 -0.23,-0.1 -0.23,-0.23l0 -0.83zm0.54 2.79l-0.52 0 -1.5 0c-0.05,0 -0.12,0.01 -0.17,-0l-0.04 0c-0.14,0 -0.25,-0.11 -0.25,-0.25 0,-0.14 0.11,-0.25 0.25,-0.25l2.24 0 -0.5 -0.48c-0.09,-0.09 -0.09,-0.23 -0,-0.32 0.09,-0.09 0.23,-0.09 0.32,-0l0.89 0.87c0.13,0.14 0.13,0.25 -0,0.38l-0.87 0.85c-0.11,0.09 -0.23,0.12 -0.34,0.01 -0.09,-0.09 -0.09,-0.24 0,-0.32l0.48 -0.47z"/>
 </g>
</svg>
